<?xml version="1.0" encoding="UTF-8" standalone="no"?>
<!-- Created with Inkscape (http://www.inkscape.org/) -->

<svg
   width="512.0px"
   height="512.0px"
   viewBox="0 0 512.0 512.0"
   version="1.1"
   id="SVGRoot"
   sodipodi:docname="patentlobster.svg"
   inkscape:version="1.2.1 (9c6d41e, 2022-07-14)"
   xmlns:inkscape="http://www.inkscape.org/namespaces/inkscape"
   xmlns:sodipodi="http://sodipodi.sourceforge.net/DTD/sodipodi-0.dtd"
   xmlns="http://www.w3.org/2000/svg"
   xmlns:svg="http://www.w3.org/2000/svg">
  <sodipodi:namedview
     id="namedview4856"
     pagecolor="#505050"
     bordercolor="#eeeeee"
     borderopacity="1"
     inkscape:showpageshadow="0"
     inkscape:pageopacity="0"
     inkscape:pagecheckerboard="0"
     inkscape:deskcolor="#505050"
     inkscape:document-units="px"
     showgrid="true"
     inkscape:zoom="1.6200624"
     inkscape:cx="409.55211"
     inkscape:cy="302.45748"
     inkscape:window-width="1309"
     inkscape:window-height="456"
     inkscape:window-x="0"
     inkscape:window-y="25"
     inkscape:window-maximized="0"
     inkscape:current-layer="layer1">
    <inkscape:grid
       type="xygrid"
       id="grid4862" />
  </sodipodi:namedview>
  <defs
     id="defs4851" />
  <g
     inkscape:label="Layer 1"
     inkscape:groupmode="layer"
     id="layer1">
    <g
       id="g826"
       transform="matrix(2.4103995,0,0,-2.7908203,108.95023,156.95421)">
      <path
         d="M 0,0 -0.434,5.406 -2.657,3.855 Z m 80.877,-16.596 c 0.739,-1.292 1.117,-2.806 1.151,-4.62 0.022,-1.178 0.018,-2.338 0.013,-3.562 2.229,1.184 4.309,2.681 5.461,5.18 1.174,2.549 1.765,5.469 1.802,8.917 -0.785,0.09 -1.572,0.19 -2.337,0.287 -0.789,0.1 -1.605,0.204 -2.405,0.295 -0.788,0.089 -1.575,0.159 -2.407,0.232 -0.013,-2.351 -0.434,-4.566 -1.278,-6.729 m -60.801,2.485 c -0.09,-0.275 -0.235,-0.55 -0.434,-0.813 -1.934,-2.559 -2.249,-5.212 -0.962,-8.111 0.912,-2.056 2.569,-3.373 4.476,-4.535 -0.315,1.275 -0.632,2.483 -1.128,3.606 -1.507,3.415 -1.907,6.879 -1.952,9.853 m -6.974,-28.351 c 1.012,0 1.958,-0.494 2.664,-1.392 l 0.294,-0.372 c 0.783,-0.987 1.592,-2.008 2.133,-3.205 0.07,-0.155 0.135,-0.255 0.231,-0.328 0.243,0.861 0.781,1.732 2.029,1.732 0.238,0 0.492,-0.036 0.775,-0.111 -0.072,0.097 -0.143,0.194 -0.213,0.29 -0.806,1.101 -1.64,2.239 -2.284,3.499 -1.518,2.968 -1.023,5.862 1.385,8.21 -0.124,0.085 -0.248,0.17 -0.371,0.254 -1.096,0.751 -2.23,1.528 -3.255,2.428 -4.113,3.613 -5.799,7.951 -5.011,12.893 0.531,3.327 3.099,6.33 5.974,6.987 0.168,0.038 0.349,0.058 0.539,0.058 0.254,0 1.128,-0.046 1.679,-0.629 0.185,-0.196 0.321,-0.417 0.406,-0.653 0.006,0.381 0.017,0.752 0.03,1.11 0.011,0.318 0.045,0.628 0.09,0.941 l -18.348,-2.847 0.267,9.461 -6.904,-5.08 c 0.016,-0.015 0.032,-0.03 0.048,-0.045 3.684,-3.47 6.643,-7.168 9.046,-11.303 3.01,-5.181 4.006,-10.792 2.959,-16.677 -0.27,-1.514 0.026,-2.467 1.021,-3.291 l 0.131,-0.108 c 0.692,-0.573 1.407,-1.166 2.02,-1.892 0.38,-0.451 0.565,-0.451 0.635,-0.451 0.089,0 0.25,0.027 0.514,0.155 0.498,0.243 1.008,0.366 1.516,0.366 m 70.98,-6.912 c 0.753,0 1.188,-0.34 1.421,-0.626 0.251,-0.306 0.384,-0.689 0.401,-1.143 0.299,0.124 0.512,0.353 0.738,0.871 1.071,2.461 2.997,3.872 5.284,3.872 0.616,0 1.257,-0.103 1.909,-0.306 1.13,1.088 2.227,2.21 3.255,3.267 0,0 0,0 0,0 -0.003,0 0.03,0.055 0.077,0.193 0.056,0.166 0.103,0.357 0.153,0.559 0.115,0.465 0.246,0.993 0.547,1.486 0.133,0.217 0.162,0.351 0.101,0.821 -0.058,0.446 -0.13,0.911 -0.2,1.36 -0.235,1.51 -0.477,3.071 -0.327,4.641 0.427,4.463 1.959,8.637 4.553,12.405 1.695,2.463 3.914,4.356 6.059,6.188 0.23,0.196 0.459,0.392 0.689,0.588 0.89,0.765 1.741,1.554 2.643,2.389 0.123,0.114 0.246,0.228 0.37,0.342 -5.009,4.762 -10.125,8.594 -15.574,11.667 -0.138,-0.422 -0.323,-0.851 -0.633,-1.223 -0.437,-0.526 -0.534,-0.913 0.043,-1.815 0.123,-0.192 0.198,-0.376 0.259,-0.524 0.019,-0.045 0.037,-0.09 0.057,-0.134 l 3.479,-7.492 -4.084,0.501 c 0.086,-0.596 0.166,-1.171 0.237,-1.75 0.299,-2.447 0.498,-5.667 -0.63,-8.879 -1.578,-4.494 -4.726,-7.785 -9.62,-10.058 1.04,-0.835 1.756,-1.885 2.171,-3.174 0.83,-2.575 0.589,-5.028 -0.696,-7.094 -0.777,-1.249 -1.792,-2.477 -3.016,-3.65 -1.281,-1.227 -2.64,-2.395 -3.953,-3.524 -0.289,-0.248 -0.577,-0.497 -0.865,-0.745 0.122,-0.011 0.247,-0.016 0.375,-0.016 0.327,0 0.676,0.033 1.065,0.102 0.596,0.105 1.193,0.285 1.826,0.476 0.337,0.102 0.686,0.207 1.039,0.302 0.31,0.083 0.587,0.123 0.847,0.123 m 22.561,-21.879 c 0.959,0 1.907,-0.292 2.743,-0.845 1.754,-1.16 2.649,-3.092 2.464,-5.148 0.748,0.458 1.535,0.674 2.409,0.674 0.784,0 1.647,-0.186 2.633,-0.569 0.029,0.007 0.062,0.018 0.079,0.027 0.49,0.295 0.96,0.653 1.459,1.032 1.008,0.766 2.047,1.556 3.407,1.955 0.309,0.408 0.661,0.749 1.004,1.08 0.473,0.458 0.813,0.802 1.004,1.179 -3.281,1.654 -5.914,4.388 -7.837,8.137 -1.945,3.795 -2.737,7.374 -2.407,10.905 -2.674,0.211 -5.949,0.689 -9.102,2.121 -0.788,-0.521 -1.58,-1.08 -2.346,-1.621 -0.407,-0.288 -0.815,-0.575 -1.225,-0.86 -0.747,-0.518 -0.87,-0.785 -0.863,-1.189 0.011,-0.663 -0.325,-1.227 -0.571,-1.639 l -0.05,-0.083 c -1.385,-2.339 -4.094,-3.851 -6.903,-3.851 -0.751,0 -1.49,0.106 -2.196,0.316 0,0 0,0 -0.001,0 -0.003,0 -0.017,10e-4 -0.04,10e-4 -0.035,0 -0.096,-0.003 -0.182,-0.019 -2.772,-0.505 -5.199,-0.957 -7.421,-1.383 -0.209,-0.04 -0.321,-0.101 -0.344,-0.118 -0.497,-0.395 -0.987,-0.814 -1.5,-1.256 0.781,-1.156 1.282,-2.593 1.554,-4.428 0.006,-0.043 0.02,-0.088 0.032,-0.119 1.63,-1.311 2.621,-3.006 3.496,-4.632 0.628,-1.166 1.073,-1.316 1.389,-1.316 0.187,0 0.409,0.054 0.658,0.159 0.431,0.182 0.907,0.319 1.497,0.433 0.242,0.047 0.391,0.1 0.625,0.64 1.405,3.247 3.686,5.191 6.781,5.778 0.396,0.075 0.794,0.114 1.183,0.114 3.052,0 5.332,-2.281 5.42,-5.424 0.011,-0.41 -0.003,-0.815 -0.044,-1.213 0.955,0.762 2.048,1.162 3.195,1.162 m 10.736,-50.573 c -0.128,0.066 -0.258,0.127 -0.388,0.189 -0.32,0.151 -0.683,0.323 -1.028,0.554 -2.703,1.814 -4.816,4.143 -6.697,6.39 -2.801,3.345 -5.374,7.157 -7.65,11.335 -0.201,-0.074 -0.401,-0.149 -0.599,-0.223 -1.069,-0.4 -2.175,-0.813 -3.303,-1.113 -0.937,-0.25 -1.945,-0.377 -2.995,-0.377 -0.945,0 -1.932,0.098 -3.017,0.3 -0.038,-0.002 -0.1,-0.019 -0.122,-0.03 -1.498,-0.95 -3.074,-1.434 -4.68,-1.434 -0.151,0 -0.303,0.005 -0.455,0.013 -0.799,0.044 -1.596,0.127 -2.366,0.207 -0.401,0.042 -0.802,0.084 -1.204,0.12 -0.033,0.003 -0.068,0.006 -0.102,0.006 h -0.004 c -0.009,0 -0.017,0 -0.026,-0.001 -0.713,-0.188 -1.454,-0.285 -2.182,-0.285 -2.76,0 -4.992,1.363 -6.627,2.552 -0.094,0.068 -0.217,0.15 -0.269,0.15 -0.019,0 -0.063,-0.004 -0.145,-0.024 -0.982,-0.246 -1.941,-0.371 -2.848,-0.371 -2.574,0 -4.838,0.988 -6.727,2.939 -0.016,0.008 -0.043,0.019 -0.077,0.028 -1.814,0.487 -3.66,0.971 -5.455,1.441 l -0.093,-0.381 c -1.111,-4.517 -3.356,-8.699 -6.675,-12.43 -0.631,-0.71 -1.374,-1.275 -2.03,-1.774 -0.437,-0.332 -0.934,-0.508 -1.437,-0.508 -0.618,0 -1.217,0.259 -1.732,0.75 -1.044,0.994 -0.463,2.105 -0.244,2.523 0.03,0.058 0.06,0.115 0.088,0.173 2.125,4.482 3.356,8.695 3.764,12.88 0.103,1.052 0.158,1.881 0.177,2.642 -1.508,0.498 -2.932,1.27 -4.391,2.385 -0.207,-0.868 -0.41,-1.722 -0.61,-2.577 -1.623,-6.948 -4.86,-13.284 -9.898,-19.369 -0.583,-0.705 -1.316,-1.371 -2.118,-1.927 -0.506,-0.35 -1.128,-0.388 -1.372,-0.388 -0.304,0 -0.745,0.053 -1.123,0.302 -1.039,0.685 -1.372,1.79 -0.869,2.884 0.203,0.441 0.406,0.882 0.61,1.323 1.062,2.301 2.16,4.68 3.126,7.053 l 0.061,0.15 c 1.898,4.665 3.861,9.488 4.666,14.522 0.25,1.56 0.382,3.154 0.495,4.659 -0.028,0.047 -0.075,0.112 -0.124,0.159 -0.288,0.276 -0.603,0.539 -0.936,0.817 -0.561,0.468 -1.142,0.952 -1.646,1.55 -0.845,1.003 -1.593,1.669 -2.425,2.162 -0.573,0.338 -1.133,0.699 -1.674,1.048 -0.355,0.229 -0.722,0.465 -1.085,0.69 -0.474,-1.478 -0.946,-2.986 -1.402,-4.445 -1.147,-3.666 -2.332,-7.456 -3.677,-11.133 -2.553,-6.978 -5.549,-12.685 -9.158,-17.447 -1.572,-2.076 -3.232,-3.714 -5.073,-5.01 -0.778,-0.547 -1.636,-0.962 -2.481,-1.199 -0.195,-0.055 -0.406,-0.082 -0.628,-0.082 -0.577,0 -1.218,0.188 -1.712,0.503 -0.45,0.288 -0.984,0.706 -1.112,1.394 -0.135,0.727 0.244,1.318 0.61,1.815 2.972,4.038 5.571,8.236 7.724,12.478 1.541,3.034 2.547,6.377 3.52,9.61 0.171,0.566 0.341,1.132 0.514,1.697 1.459,4.76 2.585,9.822 3.443,15.476 0.09,0.591 0.032,0.992 -0.221,1.531 -0.871,1.858 -0.762,3.932 0.298,5.69 0.998,1.654 2.698,2.758 4.635,3.039 -0.38,0.968 -0.749,1.912 -1.118,2.857 -0.052,0.132 -0.125,0.337 -0.157,0.575 -0.17,1.263 -0.458,1.69 -1.281,1.901 -0.709,0.182 -1.362,0.781 -1.941,1.779 -0.126,0.218 -0.21,0.29 -0.528,0.347 -0.904,0.161 -1.807,0.329 -2.71,0.497 -1.382,0.257 -2.811,0.522 -4.215,0.759 -0.036,0.006 -0.078,0.009 -0.125,0.009 -0.123,0 -0.337,-0.021 -0.659,-0.121 -0.615,-0.192 -1.264,-0.29 -1.928,-0.29 -3.959,0 -7.561,3.284 -7.709,7.028 -0.008,0.215 -0.016,0.255 -0.243,0.417 -0.634,0.453 -1.257,0.929 -1.86,1.389 -0.521,0.398 -1.059,0.809 -1.595,1.198 -3.671,-1.894 -7.742,-2.854 -12.103,-2.854 -0.648,0 -1.313,0.021 -1.977,0.063 -5.593,0.353 -10.703,2.77 -15.188,7.184 -6.979,6.868 -11.052,15.456 -12.106,25.526 -0.599,5.718 -0.641,10.707 -0.13,15.253 0.264,2.343 0.659,4.696 1.04,6.971 0.17,1.012 0.345,2.059 0.506,3.087 0.019,0.12 0.034,0.242 0.049,0.364 0.037,0.299 0.079,0.638 0.173,0.984 0.136,0.5 0.071,0.526 -0.288,0.669 l -1.652,0.656 1.316,1.195 c 0.446,0.406 0.886,0.806 1.32,1.203 0.937,0.856 1.822,1.664 2.736,2.479 6.82,6.081 12.788,10.58 18.782,14.157 4.372,2.61 7.968,3.881 11.66,4.122 0.285,0.019 0.586,0.028 0.894,0.028 1.042,0 2.079,-0.105 3.082,-0.207 0.48,-0.049 0.976,-0.1 1.455,-0.136 0.041,-0.003 0.082,-0.008 0.122,-0.012 0.065,0.604 0.129,1.198 0.191,1.792 0.023,0.219 0.046,0.438 0.07,0.657 0.075,0.696 0.152,1.415 0.198,2.113 0.059,0.889 0.504,1.494 1.36,1.851 6.29,2.619 12.28,4.701 18.312,6.365 5.922,1.633 11.779,2.792 17.408,3.446 4.728,0.55 9.085,0.912 13.317,1.107 1.775,0.081 3.526,0.123 5.205,0.123 2.066,0 4.097,-0.063 6.035,-0.187 8.44,-0.539 15.858,-1.643 22.676,-3.376 0.466,-0.118 0.932,-0.235 1.398,-0.353 2.567,-0.645 5.222,-1.312 7.787,-2.176 2.811,-0.946 5.602,-2.06 8.3,-3.137 0.815,-0.325 1.629,-0.65 2.444,-0.971 0.644,-0.253 1.119,-0.887 1.304,-1.402 0.489,-1.363 0.956,-2.752 1.409,-4.097 l 0.003,-0.008 1.965,3.431 0.937,-0.468 c 15.48,-7.741 28.916,-18.649 39.933,-32.42 l 0.647,-0.808 -0.762,-0.701 c -0.272,-0.25 -0.544,-0.504 -0.818,-0.758 -0.682,-0.635 -1.388,-1.291 -2.112,-1.922 -0.026,-0.023 -0.041,-0.039 -0.05,-0.048 -0.004,-0.028 -0.009,-0.098 0.002,-0.255 0.1,-1.405 0.222,-2.838 0.339,-4.225 0.316,-3.717 0.642,-7.561 0.59,-11.364 -0.085,-6.147 -1.755,-12.421 -5.108,-19.181 -3.787,-7.633 -9.614,-13.227 -17.319,-16.627 -2.27,-1.002 -4.459,-1.613 -6.663,-1.859 0.402,-0.388 0.885,-0.654 1.455,-0.802 1.283,-0.335 2.616,-0.504 3.961,-0.504 1.378,0 2.808,0.178 4.251,0.528 1.616,2.664 4.202,3.176 6.015,3.328 1.819,0.153 3.664,0.231 5.486,0.231 3.216,0 6.474,-0.242 9.685,-0.717 1.068,-0.159 1.993,-0.668 2.888,-1.16 0.329,-0.181 0.64,-0.352 0.947,-0.499 0.458,-0.22 0.991,-0.682 1.113,-1.317 0.022,-0.111 0.046,-0.148 0.046,-0.148 0.064,-0.038 0.366,-0.081 0.567,-0.109 0.156,-0.022 0.313,-0.045 0.467,-0.075 4.157,-0.81 6.963,-2.498 8.831,-5.314 0.444,-0.668 0.691,-1.392 0.931,-2.093 0.055,-0.163 0.111,-0.325 0.168,-0.485 0.266,-0.735 0.031,-1.235 -0.132,-1.468 -0.268,-0.382 -0.718,-0.601 -1.233,-0.601 -0.159,0 -0.327,0.02 -0.5,0.06 -0.25,0.057 -0.617,0.179 -0.954,0.437 -0.802,0.614 -1.684,0.901 -2.775,0.901 -0.646,0 -1.362,-0.099 -2.255,-0.311 -3.582,-0.851 -7.11,-2.454 -10.783,-4.898 -1.418,-0.945 -2.837,-1.957 -4.208,-2.937 -0.743,-0.53 -1.486,-1.06 -2.233,-1.584 -0.116,-0.08 -0.23,-0.168 -0.345,-0.256 -0.426,-0.325 -0.909,-0.694 -1.527,-0.871 -1.795,-0.513 -2.442,-1.844 -3.349,-3.973 l -0.159,-0.37 c -0.304,-0.706 -0.728,-1.31 -1.138,-1.894 -0.107,-0.153 -0.214,-0.305 -0.318,-0.458 -0.328,-0.485 -0.675,-0.958 -1.01,-1.415 -0.152,-0.207 -0.303,-0.414 -0.453,-0.622 -0.039,-0.085 -0.095,-0.197 -0.187,-0.316 -0.405,-0.519 -0.802,-1.07 -1.187,-1.602 -1.177,-1.63 -2.394,-3.315 -4.143,-4.635 -0.511,-0.385 -0.961,-0.922 -1.439,-1.49 -0.292,-0.349 -0.595,-0.71 -0.928,-1.053 -0.414,-0.429 -0.843,-0.847 -1.257,-1.251 -0.464,-0.452 -0.944,-0.919 -1.39,-1.39 1.037,-3.669 2.603,-7.555 4.922,-12.215 0.853,-1.714 -0.036,-2.661 -1.017,-3.362 l -0.783,-0.559 -0.664,0.696 c -3.304,3.465 -6.437,6.95 -8.469,11.361 l -0.467,-0.207 c 2.387,-6.48 5.825,-12.35 10.217,-17.449 0.383,-0.444 0.491,-0.972 0.578,-1.396 0.028,-0.134 0.053,-0.259 0.082,-0.353 l 0.276,-0.896 -1.857,-0.933 -0.55,0.417 c -6.366,4.823 -11.104,10.824 -14.097,17.847 l -0.967,-0.342 c 0.795,-1.58 1.564,-3.185 2.313,-4.747 2.282,-4.759 4.641,-9.68 7.795,-14.052 l 0.543,-0.753 -1.472,-1.518 z"
         style="fill:#000000;fill-opacity:1;fill-rule:nonzero;stroke:none"
         id="path828" />
    </g>
    <g
       id="g830"
       transform="matrix(2.4103995,0,0,-2.7908203,352.82,308.76926)">
      <path
         d="M 0,0 C 0.052,0.051 0.161,0.145 0.386,0.301 0.799,0.588 1.21,0.878 1.621,1.168 2.217,1.589 2.828,2.02 3.438,2.434 6.14,1.303 8.877,0.811 11.254,0.565 c -0.106,-3.382 0.75,-6.807 2.594,-10.403 1.792,-3.497 4.179,-6.162 7.114,-7.95 -0.022,-0.021 -0.044,-0.042 -0.066,-0.064 -0.285,-0.275 -0.593,-0.574 -0.888,-0.923 -1.389,-0.48 -2.461,-1.295 -3.424,-2.027 -0.337,-0.257 -0.662,-0.503 -0.98,-0.72 -0.911,0.306 -1.74,0.456 -2.519,0.456 -0.487,0 -0.939,-0.057 -1.359,-0.159 -0.289,1.789 -1.296,3.388 -2.903,4.45 -1.017,0.673 -2.177,1.029 -3.354,1.029 -0.712,0 -1.416,-0.131 -2.089,-0.383 -0.177,1.555 -0.835,2.96 -1.888,4.007 -1.2,1.193 -2.832,1.85 -4.594,1.85 -0.458,0 -0.925,-0.044 -1.39,-0.132 -3.478,-0.661 -6.032,-2.823 -7.592,-6.428 -0.005,-0.011 -0.009,-0.021 -0.013,-0.031 -0.578,-0.121 -1.076,-0.272 -1.522,-0.461 -0.065,-0.027 -0.116,-0.044 -0.153,-0.055 -0.084,0.082 -0.251,0.28 -0.487,0.717 -0.834,1.55 -1.852,3.3 -3.456,4.701 -0.176,1.072 -0.487,2.409 -1.173,3.715 0.214,0.18 0.425,0.355 0.635,0.524 2.198,0.422 4.594,0.868 7.321,1.365 0.744,-0.2 1.516,-0.301 2.299,-0.301 3.242,0 6.253,1.684 7.857,4.394 l 0.048,0.08 C -0.454,-1.725 0.003,-0.96 0,0 m -80.06,29.752 c -0.585,0.596 -1.069,1.267 -1.421,2.061 -0.702,1.582 -0.85,3.08 -0.44,4.526 0.283,-2.047 0.813,-4.204 1.761,-6.353 0.034,-0.077 0.067,-0.155 0.1,-0.234 m -19.391,9.907 1.611,0.25 9.724,1.509 c -1.361,-1.445 -2.346,-3.356 -2.673,-5.409 -0.853,-5.344 0.955,-10.021 5.374,-13.901 0.863,-0.758 1.781,-1.42 2.69,-2.049 -1.961,-2.51 -2.234,-5.526 -0.705,-8.515 0.424,-0.829 0.916,-1.595 1.426,-2.329 -0.254,-0.113 -0.491,-0.261 -0.705,-0.442 -0.485,0.762 -1.032,1.452 -1.536,2.088 -0.098,0.123 -0.195,0.246 -0.291,0.368 -0.921,1.171 -2.176,1.816 -3.535,1.816 -0.629,0 -1.255,-0.138 -1.863,-0.412 -0.667,0.779 -1.438,1.417 -2.12,1.982 l -0.127,0.104 c -0.586,0.486 -0.86,0.987 -0.637,2.244 1.094,6.151 0.054,12.014 -3.091,17.428 -1.054,1.813 -2.237,3.572 -3.542,5.268 m 80.368,-1.778 c 0.638,1.765 1.013,3.565 1.132,5.441 0.41,-0.039 0.813,-0.079 1.214,-0.125 0.792,-0.09 1.603,-0.193 2.387,-0.292 0.442,-0.056 0.891,-0.113 1.344,-0.169 -0.128,-2.859 -0.679,-5.314 -1.673,-7.472 -0.712,-1.545 -1.832,-2.686 -3.342,-3.692 -0.002,0.544 -0.006,1.085 -0.017,1.631 -0.033,1.79 -0.376,3.327 -1.045,4.678 m -85.162,7.187 4.014,2.955 -0.165,-5.86 -0.036,-1.269 c -1.182,1.442 -2.455,2.835 -3.813,4.174 m 99.386,6.483 c 0.018,0.028 0.045,0.066 0.086,0.115 0.1,0.121 0.191,0.245 0.272,0.37 C 0.173,49.294 4.608,45.966 8.955,41.937 8.243,41.279 7.554,40.65 6.845,40.042 6.617,39.845 6.387,39.65 6.158,39.454 3.958,37.576 1.684,35.635 -0.093,33.053 -2.795,29.127 -4.391,24.777 -4.837,20.125 c -0.163,-1.709 0.09,-3.34 0.336,-4.918 0.071,-0.462 0.139,-0.899 0.196,-1.333 0.009,-0.071 0.014,-0.121 0.017,-0.157 -0.365,-0.619 -0.519,-1.239 -0.643,-1.74 -0.037,-0.15 -0.072,-0.293 -0.107,-0.409 -0.838,-0.86 -1.719,-1.76 -2.623,-2.643 -0.537,0.121 -1.068,0.182 -1.587,0.182 -2.464,0 -4.564,-1.329 -5.877,-3.681 -0.522,0.459 -1.205,0.707 -1.966,0.707 -0.359,0 -0.73,-0.053 -1.135,-0.161 -0.047,-0.013 -0.094,-0.025 -0.14,-0.038 0.575,0.512 1.147,1.035 1.707,1.571 1.291,1.237 2.365,2.537 3.191,3.866 1.462,2.35 1.742,5.123 0.809,8.019 -0.304,0.945 -0.758,1.789 -1.36,2.529 4.387,2.367 7.274,5.651 8.8,9.996 1.204,3.428 0.998,6.814 0.684,9.381 -0.013,0.113 -0.028,0.226 -0.042,0.339 l 0.672,-0.082 3.963,-0.487 -1.681,3.621 -0.591,1.273 -2.047,4.409 c -0.014,0.029 -0.025,0.059 -0.037,0.089 -0.07,0.169 -0.175,0.424 -0.35,0.699 -0.129,0.201 -0.186,0.326 -0.211,0.394 m -40.433,54.261 c -1.696,0 -3.465,-0.041 -5.257,-0.124 -4.256,-0.196 -8.638,-0.56 -13.394,-1.112 -5.685,-0.661 -11.598,-1.832 -17.574,-3.48 -6.077,-1.675 -12.11,-3.772 -18.444,-6.41 -1.576,-0.656 -1.979,-1.885 -2.04,-2.801 -0.045,-0.676 -0.117,-1.353 -0.195,-2.07 -0.023,-0.22 -0.047,-0.439 -0.07,-0.658 -0.024,-0.235 -0.049,-0.469 -0.074,-0.705 -0.158,0.016 -0.317,0.032 -0.48,0.049 -1.03,0.104 -2.095,0.213 -3.193,0.213 -0.333,0 -0.658,-0.01 -0.967,-0.03 -3.875,-0.254 -7.624,-1.572 -12.155,-4.277 -6.056,-3.615 -12.078,-8.153 -18.952,-14.282 -0.921,-0.821 -1.811,-1.634 -2.754,-2.494 -0.431,-0.394 -0.867,-0.792 -1.31,-1.195 l -2.63,-2.39 2.826,-1.122 c -0.046,-0.247 -0.075,-0.476 -0.099,-0.675 -0.014,-0.11 -0.027,-0.22 -0.044,-0.33 -0.16,-1.021 -0.335,-2.064 -0.504,-3.073 -0.384,-2.29 -0.781,-4.658 -1.048,-7.032 -0.521,-4.627 -0.479,-9.694 0.128,-15.493 1.082,-10.332 5.264,-19.147 12.431,-26.201 4.681,-4.606 10.029,-7.129 15.897,-7.499 0.686,-0.044 1.375,-0.065 2.046,-0.065 4.296,0 8.325,0.897 11.991,2.667 0.34,-0.254 0.681,-0.514 1.034,-0.784 0.546,-0.417 1.108,-0.846 1.687,-1.265 0.341,-4.186 4.375,-7.796 8.798,-7.796 0.776,0 1.537,0.114 2.259,0.34 0.173,0.054 0.275,0.067 0.312,0.07 1.384,-0.234 2.795,-0.497 4.161,-0.75 0.842,-0.157 1.71,-0.318 2.572,-0.473 0.713,-1.168 1.563,-1.886 2.526,-2.133 0.178,-0.045 0.232,-0.09 0.233,-0.09 0.012,-0.013 0.128,-0.16 0.226,-0.886 0.036,-0.271 0.107,-0.534 0.222,-0.829 0.217,-0.556 0.434,-1.112 0.654,-1.672 -1.699,-0.564 -3.154,-1.701 -4.087,-3.248 -1.255,-2.081 -1.383,-4.535 -0.352,-6.734 0.158,-0.338 0.184,-0.521 0.128,-0.894 -0.849,-5.599 -1.964,-10.609 -3.407,-15.317 -0.174,-0.567 -0.345,-1.135 -0.515,-1.703 -1.004,-3.333 -1.951,-6.481 -3.447,-9.427 -2.126,-4.188 -4.693,-8.334 -7.629,-12.323 -0.338,-0.459 -1.041,-1.415 -0.807,-2.675 0.233,-1.249 1.23,-1.886 1.606,-2.125 0.675,-0.431 1.516,-0.678 2.308,-0.678 0.323,0 0.635,0.042 0.927,0.123 0.965,0.271 1.94,0.741 2.82,1.361 1.936,1.362 3.676,3.078 5.319,5.246 3.676,4.851 6.723,10.653 9.315,17.736 1.355,3.702 2.544,7.506 3.694,11.184 0.315,1.008 0.638,2.039 0.963,3.066 0.508,-0.327 1.032,-0.663 1.575,-0.984 0.721,-0.426 1.381,-1.019 2.143,-1.922 0.566,-0.672 1.212,-1.211 1.783,-1.686 0.219,-0.184 0.431,-0.36 0.627,-0.534 -0.103,-1.333 -0.23,-2.723 -0.446,-4.075 -0.785,-4.908 -2.638,-9.46 -4.599,-14.279 l -0.061,-0.15 c -0.956,-2.349 -2.049,-4.717 -3.106,-7.007 -0.204,-0.441 -0.407,-0.883 -0.61,-1.324 -0.726,-1.579 -0.217,-3.295 1.265,-4.273 0.481,-0.317 1.081,-0.484 1.734,-0.484 0.432,0 1.267,0.076 2.003,0.585 0.885,0.612 1.695,1.349 2.341,2.131 5.15,6.221 8.461,12.705 10.124,19.824 0.077,0.331 0.155,0.661 0.233,0.992 0.841,-0.532 1.688,-0.967 2.548,-1.311 -0.029,-0.524 -0.075,-1.1 -0.14,-1.771 -0.395,-4.055 -1.594,-8.148 -3.663,-12.513 -0.022,-0.045 -0.046,-0.09 -0.069,-0.134 -0.16,-0.306 -0.402,-0.769 -0.469,-1.383 -0.101,-0.916 0.23,-1.789 0.932,-2.457 0.725,-0.691 1.588,-1.056 2.496,-1.056 0.748,0 1.477,0.254 2.109,0.735 0.661,0.503 1.484,1.129 2.187,1.919 3.265,3.672 5.53,7.771 6.738,12.193 1.375,-0.361 2.769,-0.728 4.146,-1.097 2.064,-2.034 4.523,-3.065 7.314,-3.065 0.897,0 1.834,0.11 2.791,0.327 1.636,-1.169 4.097,-2.634 7.098,-2.634 0.76,0 1.531,0.093 2.294,0.278 0.365,-0.034 0.727,-0.071 1.109,-0.111 0.783,-0.082 1.594,-0.166 2.419,-0.212 0.172,-0.009 0.345,-0.014 0.516,-0.014 1.707,0 3.376,0.476 4.967,1.417 1.011,-0.171 1.948,-0.254 2.854,-0.254 1.146,0 2.25,0.14 3.28,0.414 1.073,0.286 2.106,0.662 3.108,1.036 2.195,-3.914 4.65,-7.5 7.308,-10.675 1.933,-2.309 4.111,-4.707 6.929,-6.598 0.414,-0.278 0.817,-0.468 1.172,-0.637 0.12,-0.056 0.239,-0.112 0.356,-0.172 l 1.462,-0.749 1.142,1.179 0.253,0.261 1.293,1.334 -1.086,1.507 c -1.603,2.222 -3.003,4.601 -4.294,7.033 2.226,-2.652 4.79,-5.081 7.681,-7.272 l 1.101,-0.834 1.234,0.621 0.402,0.201 1.676,0.842 -0.552,1.793 c -0.013,0.042 -0.038,0.161 -0.056,0.248 -0.1,0.492 -0.252,1.235 -0.824,1.898 -2.012,2.335 -3.819,4.836 -5.413,7.486 0.809,-0.905 1.644,-1.793 2.49,-2.68 l 1.327,-1.392 1.565,1.117 c 0.613,0.437 1.357,1.064 1.677,2.042 0.414,1.262 -0.131,2.357 -0.31,2.717 -2.191,4.4 -3.649,7.958 -4.671,11.411 0.296,0.299 0.603,0.598 0.921,0.907 0.419,0.41 0.854,0.833 1.279,1.273 0.36,0.372 0.675,0.748 0.98,1.111 0.436,0.519 0.847,1.009 1.257,1.318 1.883,1.42 3.15,3.174 4.375,4.871 0.396,0.548 0.77,1.066 1.162,1.569 0.125,0.161 0.213,0.315 0.271,0.431 0.129,0.179 0.26,0.357 0.391,0.535 0.34,0.465 0.692,0.946 1.032,1.447 0.101,0.148 0.204,0.295 0.308,0.443 0.422,0.6 0.9,1.281 1.249,2.092 0.053,0.125 0.107,0.25 0.16,0.375 0.825,1.936 1.317,2.964 2.634,3.341 0.82,0.234 1.442,0.709 1.896,1.056 0.111,0.086 0.217,0.166 0.307,0.229 0.752,0.527 1.508,1.067 2.238,1.588 1.366,0.975 2.777,1.983 4.182,2.918 3.562,2.371 6.972,3.922 10.425,4.742 0.806,0.192 1.441,0.281 1.998,0.281 0.846,0 1.494,-0.207 2.102,-0.672 0.494,-0.38 1.023,-0.557 1.379,-0.638 0.254,-0.058 0.506,-0.088 0.748,-0.088 0.881,0 1.661,0.391 2.14,1.073 0.287,0.409 0.704,1.275 0.268,2.482 -0.055,0.154 -0.108,0.31 -0.162,0.466 -0.25,0.732 -0.533,1.561 -1.056,2.348 -2.015,3.038 -5.137,4.931 -9.543,5.789 -0.144,0.028 -0.28,0.049 -0.405,0.067 -0.338,0.716 -0.966,1.227 -1.52,1.493 -0.28,0.135 -0.577,0.298 -0.892,0.471 -0.935,0.515 -1.995,1.098 -3.26,1.285 -3.265,0.484 -6.578,0.729 -9.848,0.729 -1.852,0 -3.729,-0.078 -5.579,-0.234 C 30.214,5.194 28.045,4.062 26.624,1.993 25.411,1.729 24.215,1.594 23.06,1.594 c -0.32,0 -0.639,0.011 -0.957,0.031 0.877,0.28 1.759,0.617 2.652,1.011 7.949,3.508 13.959,9.278 17.864,17.15 3.428,6.911 5.137,13.341 5.223,19.658 0.053,3.857 -0.275,7.728 -0.593,11.472 -0.109,1.283 -0.221,2.607 -0.316,3.909 0.614,0.545 1.211,1.1 1.79,1.639 0.271,0.252 0.541,0.503 0.811,0.752 l 1.523,1.401 -1.293,1.615 C 44.224,67.157 38.049,73.406 31.412,78.807 24.708,84.261 17.323,89.02 9.461,92.951 L 7.586,93.889 6.545,92.07 6.323,91.683 c -0.205,0.598 -0.415,1.198 -0.628,1.793 -0.262,0.73 -0.909,1.654 -1.942,2.06 -0.813,0.32 -1.624,0.644 -2.436,0.968 -2.714,1.083 -5.519,2.202 -8.36,3.159 -2.605,0.877 -5.28,1.549 -7.868,2.2 -0.466,0.117 -0.932,0.234 -1.397,0.353 -6.886,1.75 -14.37,2.864 -22.879,3.408 -1.961,0.125 -4.015,0.188 -6.105,0.188 M -8.633,-4.441 c -0.633,0 -1.268,0.088 -1.883,0.27 -0.111,0.033 -0.231,0.047 -0.354,0.047 -0.128,0 -0.259,-0.015 -0.381,-0.037 -2.479,-0.452 -4.956,-0.911 -7.431,-1.385 -0.288,-0.055 -0.6,-0.161 -0.824,-0.339 -0.772,-0.613 -1.51,-1.269 -2.341,-1.976 1.198,-1.285 1.723,-2.953 1.987,-4.739 0.04,-0.273 0.169,-0.61 0.373,-0.771 1.476,-1.165 2.404,-2.723 3.276,-4.342 0.598,-1.11 1.315,-1.899 2.365,-1.899 0.329,0 0.69,0.077 1.089,0.245 0.405,0.171 0.843,0.283 1.276,0.367 0.75,0.144 1.125,0.579 1.432,1.287 1.15,2.658 2.994,4.565 5.971,5.13 0.333,0.063 0.659,0.094 0.976,0.094 2.405,0 4.239,-1.766 4.311,-4.346 0.042,-1.476 -0.293,-2.856 -1.017,-4.143 -0.425,-0.755 -0.424,-0.757 0.005,-1.323 0.767,1.009 1.452,2.168 2.383,3.076 0.873,0.851 1.888,1.261 2.889,1.261 0.739,0 1.471,-0.224 2.131,-0.66 1.72,-1.138 2.382,-3.178 1.759,-5.187 -0.173,-0.558 -0.137,-1.182 -0.197,-1.775 0.086,-0.025 0.171,-0.049 0.257,-0.074 0.04,0.072 0.072,0.15 0.122,0.215 1.132,1.477 2.204,2.162 3.543,2.162 0.691,0 1.453,-0.182 2.33,-0.531 0.076,-0.031 0.167,-0.044 0.263,-0.044 0.235,0 0.506,0.08 0.69,0.191 1.625,0.979 2.931,2.481 4.871,2.943 0.052,0.013 0.114,0.043 0.141,0.085 0.823,1.283 2.492,1.98 2.574,3.792 -3.711,1.612 -6.3,4.446 -8.132,8.02 -1.829,3.568 -2.798,7.324 -2.16,11.318 -0.157,0.078 -0.205,0.12 -0.255,0.123 C 10.042,2.826 6.745,3.328 3.647,4.765 3.573,4.8 3.479,4.815 3.379,4.815 3.157,4.815 2.899,4.74 2.736,4.632 1.512,3.824 0.327,2.959 -0.878,2.123 -1.625,1.605 -2.235,1.043 -2.217,0.005 -2.211,-0.374 -2.475,-0.781 -2.684,-1.134 -3.91,-3.205 -6.257,-4.441 -8.633,-4.441 m -11.614,32.265 c 3.094,1.476 6.049,3.185 7.582,6.512 1.424,3.091 1.91,6.392 1.906,9.778 -10e-4,0.46 -0.176,0.614 -0.622,0.664 -1.704,0.188 -3.402,0.428 -5.105,0.622 -1.194,0.136 -2.392,0.227 -3.672,0.346 0.152,-2.759 -0.266,-5.3 -1.254,-7.748 -0.075,-0.187 0.01,-0.5 0.123,-0.695 0.748,-1.283 1.007,-2.689 1.034,-4.141 0.033,-1.734 0.008,-3.469 0.008,-5.338 m 16.613,15.93 c -1.243,0.152 -2.346,0.288 -3.54,0.434 0.16,-1.144 0.315,-2.151 0.438,-3.162 0.346,-2.828 0.388,-5.635 -0.575,-8.377 -1.611,-4.587 -4.903,-7.537 -9.215,-9.5 -0.536,-0.244 -1.073,-0.485 -1.742,-0.787 1.778,-0.783 2.947,-1.937 3.499,-3.652 0.689,-2.139 0.605,-4.261 -0.582,-6.168 -0.779,-1.253 -1.774,-2.412 -2.842,-3.436 -1.819,-1.742 -3.773,-3.343 -5.667,-5.006 -0.158,-0.139 -0.294,-0.304 -0.502,-0.522 0.821,-0.487 1.655,-0.666 2.493,-0.666 0.419,0 0.838,0.045 1.257,0.119 1.003,0.177 1.972,0.534 2.96,0.799 0.214,0.057 0.4,0.086 0.56,0.086 0.607,0 0.828,-0.41 0.663,-1.218 -0.057,-0.28 -0.106,-0.563 -0.185,-0.979 0.486,0.145 0.819,0.276 1.164,0.34 0.959,0.18 1.51,0.651 1.934,1.625 0.79,1.814 2.227,3.206 4.268,3.205 0.552,0 1.149,-0.101 1.789,-0.325 0.039,-0.013 0.085,-0.02 0.133,-0.02 0.228,0 0.535,0.137 0.694,0.29 1.138,1.094 2.244,2.222 3.345,3.354 0.156,0.161 0.258,0.394 0.331,0.612 0.203,0.607 0.271,1.289 0.595,1.818 0.322,0.528 0.33,0.962 0.255,1.543 -0.25,1.912 -0.704,3.867 -0.523,5.753 0.412,4.3 1.889,8.288 4.363,11.882 1.786,2.596 4.202,4.542 6.556,6.563 1.319,1.133 2.575,2.337 3.909,3.554 C 6.759,47.21 0.9,51.696 -5.658,55.23 -5.94,54.45 -6.033,53.62 -6.479,53.083 c -0.914,-1.1 -0.709,-2.071 -0.038,-3.121 0.104,-0.161 0.163,-0.351 0.244,-0.527 0.86,-1.851 1.719,-3.701 2.639,-5.681 m -123.206,5.344 c -0.089,0.285 -0.104,0.629 -0.278,0.845 -1.303,1.617 -2.616,3.229 -3.97,4.804 -1.385,1.611 -2.821,3.178 -4.235,4.765 -0.118,-0.061 -0.235,-0.121 -0.352,-0.181 0.452,-1.077 0.67,-2.36 1.401,-3.193 2.061,-2.35 4.324,-4.523 6.535,-6.739 0.2,-0.2 0.595,-0.205 0.899,-0.301 m 36.738,-38.792 c 0.302,0 0.631,0.088 0.999,0.268 0.354,0.172 0.7,0.254 1.032,0.254 0.684,0 1.305,-0.35 1.791,-0.969 0.836,-1.064 1.74,-2.134 2.288,-3.348 0.487,-1.078 1.291,-1.063 2.136,-1.317 0.11,1.439 0.406,2.069 1.135,2.069 0.374,0 0.862,-0.166 1.498,-0.474 0.669,-0.324 1.386,-0.551 2.081,-0.822 0.038,0.067 0.076,0.134 0.114,0.201 -0.43,0.57 -0.878,1.127 -1.284,1.713 -1.071,1.544 -2.295,3.013 -3.144,4.673 -1.414,2.764 -0.762,5.269 1.596,7.299 0.222,0.191 0.437,0.393 0.575,0.517 -1.599,1.154 -3.243,2.153 -4.667,3.404 -3.571,3.136 -5.426,7.005 -4.648,11.885 0.454,2.843 2.643,5.514 5.126,6.081 0.087,0.02 0.187,0.03 0.292,0.03 0.328,0 0.699,-0.097 0.874,-0.282 0.349,-0.37 0.248,-0.874 -0.109,-1.346 -2.158,-2.855 -2.537,-5.971 -1.091,-9.229 1.379,-3.106 4.203,-4.671 6.998,-6.229 0.002,-0.001 0.005,-0.002 0.008,-0.002 0.027,0 0.084,0.051 0.154,0.09 -0.577,2.038 -0.933,4.183 -1.783,6.109 -1.677,3.799 -1.975,7.744 -1.828,11.786 0.025,0.704 0.185,1.404 0.311,2.309 -6.229,-0.967 -12.352,-1.917 -18.532,-2.875 0.096,3.398 0.19,6.708 0.288,10.176 -0.698,-0.342 -1.251,-0.614 -1.924,-0.944 -0.284,3.537 -0.558,6.963 -0.841,10.485 -1.625,-1.133 -3.15,-2.197 -4.712,-3.287 1.773,-2.573 3.511,-5.094 5.276,-7.654 -2.53,-1.862 -5.001,-3.681 -7.636,-5.619 0.435,-0.382 0.754,-0.645 1.055,-0.928 3.469,-3.268 6.443,-6.915 8.847,-11.053 2.899,-4.988 3.829,-10.291 2.826,-15.926 -0.316,-1.774 0.007,-3.18 1.405,-4.339 0.703,-0.583 1.427,-1.167 2.011,-1.861 0.467,-0.554 0.932,-0.845 1.483,-0.845 m 44.81,93.289 c 1.991,0 3.982,-0.058 5.964,-0.184 7.576,-0.484 15.098,-1.47 22.473,-3.344 3.051,-0.776 6.126,-1.503 9.104,-2.506 3.614,-1.216 7.141,-2.691 10.692,-4.088 0.281,-0.111 0.561,-0.45 0.667,-0.745 0.663,-1.849 1.276,-3.717 1.907,-5.577 0.069,-0.204 0.15,-0.404 0.303,-0.813 0.937,1.637 1.791,3.128 2.651,4.63 C 24.048,83.177 37.15,72.45 48.033,58.847 47.077,57.968 46.12,57.055 45.124,56.186 44.723,55.837 44.662,55.501 44.7,54.97 45.065,49.807 45.696,44.635 45.625,39.474 45.535,32.891 43.57,26.694 40.632,20.771 36.954,13.357 31.405,7.994 23.86,4.665 21.563,3.651 19.172,2.982 16.654,2.818 16.387,2.8 16.122,2.748 15.736,2.696 c 0.636,-1.483 1.681,-2.413 3.083,-2.779 1.408,-0.367 2.824,-0.54 4.241,-0.54 1.52,0 3.042,0.199 4.558,0.571 0.22,0.054 0.479,0.216 0.589,0.404 1.171,2 3.016,2.701 5.212,2.886 1.8,0.151 3.598,0.226 5.393,0.226 3.185,0 6.362,-0.237 9.523,-0.705 1.224,-0.182 2.357,-1.004 3.517,-1.562 0.21,-0.1 0.465,-0.323 0.505,-0.527 0.22,-1.142 1.141,-1.051 1.956,-1.21 3.284,-0.64 6.198,-1.944 8.119,-4.839 0.46,-0.693 0.693,-1.544 0.981,-2.341 0.148,-0.412 -0.019,-0.585 -0.323,-0.585 -0.077,0 -0.162,0.011 -0.252,0.032 -0.185,0.043 -0.378,0.122 -0.527,0.237 -1.089,0.834 -2.251,1.129 -3.45,1.129 -0.824,0 -1.666,-0.14 -2.511,-0.34 -4.038,-0.96 -7.707,-2.769 -11.141,-5.054 -2.19,-1.458 -4.307,-3.026 -6.463,-4.535 -0.499,-0.35 -0.98,-0.81 -1.541,-0.97 -2.542,-0.727 -3.318,-2.871 -4.221,-4.971 -0.333,-0.774 -0.877,-1.462 -1.356,-2.168 -0.477,-0.705 -0.994,-1.383 -1.491,-2.075 -0.048,-0.066 -0.066,-0.155 -0.116,-0.219 -1.622,-2.082 -2.948,-4.393 -5.123,-6.033 -0.956,-0.721 -1.649,-1.783 -2.496,-2.658 -0.884,-0.914 -1.829,-1.772 -2.701,-2.697 -0.191,-0.202 -0.325,-0.625 -0.253,-0.881 1.219,-4.363 3.02,-8.497 5.034,-12.542 0.42,-0.844 0.305,-1.27 -0.67,-1.966 -3.441,3.609 -6.764,7.306 -8.698,12.063 -0.798,-0.354 -1.544,-0.685 -2.38,-1.055 0.086,-0.294 0.164,-0.635 0.284,-0.96 2.414,-6.566 5.861,-12.524 10.433,-17.831 0.286,-0.332 0.3,-0.896 0.44,-1.352 -0.134,-0.067 -0.268,-0.135 -0.402,-0.202 -6.385,4.838 -11.187,10.927 -14.142,18.36 -1.051,-0.372 -2.032,-0.719 -3.153,-1.116 3.458,-6.698 6.265,-13.823 10.77,-20.07 -0.084,-0.087 -0.169,-0.175 -0.253,-0.262 -0.436,0.223 -0.9,0.406 -1.304,0.677 -2.511,1.685 -4.543,3.884 -6.465,6.18 -2.944,3.516 -5.457,7.329 -7.639,11.361 -0.142,0.264 -0.31,0.514 -0.373,0.619 -1.616,-0.57 -3.116,-1.206 -4.675,-1.621 -0.894,-0.238 -1.799,-0.339 -2.709,-0.339 -0.937,0 -1.878,0.107 -2.815,0.281 -0.062,0.011 -0.127,0.017 -0.195,0.017 -0.248,0 -0.523,-0.074 -0.717,-0.197 -1.264,-0.801 -2.619,-1.265 -4.094,-1.265 -0.13,0 -0.261,0.004 -0.393,0.011 -1.179,0.065 -2.354,0.218 -3.531,0.325 -0.066,0.006 -0.134,0.01 -0.201,0.01 -0.1,0 -0.199,-0.009 -0.292,-0.033 -0.663,-0.174 -1.303,-0.254 -1.921,-0.254 -2.202,0 -4.139,1.007 -5.976,2.341 -0.323,0.235 -0.589,0.361 -0.919,0.361 -0.127,0 -0.263,-0.018 -0.415,-0.057 -0.888,-0.222 -1.748,-0.338 -2.579,-0.338 -2.215,0 -4.217,0.823 -5.953,2.626 -0.142,0.147 -0.362,0.25 -0.564,0.304 -2.107,0.565 -4.217,1.117 -6.327,1.669 -0.012,0.003 -0.024,0.004 -0.037,0.004 -0.043,0 -0.101,-0.013 -0.206,-0.021 -0.11,-0.449 -0.225,-0.924 -0.342,-1.398 -1.116,-4.538 -3.338,-8.486 -6.426,-11.958 -0.546,-0.614 -1.215,-1.128 -1.873,-1.628 -0.253,-0.193 -0.512,-0.283 -0.766,-0.283 -0.337,0 -0.667,0.159 -0.967,0.445 -0.515,0.49 -0.148,0.937 0.08,1.418 1.996,4.208 3.413,8.589 3.867,13.248 0.096,0.992 0.172,1.989 0.186,2.984 0.004,0.244 -0.228,0.652 -0.432,0.713 -2.037,0.608 -3.765,1.727 -5.356,3.096 -0.099,0.086 -0.22,0.146 -0.397,0.261 -0.346,-1.455 -0.683,-2.849 -1.009,-4.245 -1.659,-7.105 -5.048,-13.329 -9.672,-18.914 -0.541,-0.654 -1.198,-1.24 -1.895,-1.722 -0.177,-0.122 -0.469,-0.191 -0.741,-0.191 -0.201,0 -0.39,0.038 -0.513,0.119 -0.451,0.297 -0.795,0.791 -0.471,1.495 1.283,2.793 2.597,5.576 3.755,8.421 1.972,4.847 3.962,9.702 4.795,14.915 0.258,1.61 0.393,3.241 0.514,4.868 0.022,0.3 -0.23,0.694 -0.47,0.925 -0.815,0.782 -1.781,1.426 -2.502,2.281 -0.797,0.946 -1.645,1.773 -2.709,2.402 -0.977,0.578 -1.914,1.222 -2.882,1.816 -0.328,0.201 -0.572,0.306 -0.765,0.306 -0.32,0 -0.503,-0.288 -0.701,-0.904 -1.677,-5.218 -3.213,-10.488 -5.095,-15.631 -2.232,-6.099 -5.044,-11.939 -9,-17.159 -1.383,-1.825 -2.957,-3.456 -4.828,-4.772 -0.644,-0.453 -1.388,-0.827 -2.142,-1.038 -0.101,-0.029 -0.212,-0.042 -0.329,-0.042 -0.379,0 -0.814,0.137 -1.116,0.33 -0.81,0.517 -0.786,0.828 -0.205,1.617 2.945,4.001 5.571,8.203 7.82,12.633 1.854,3.65 2.913,7.594 4.105,11.484 1.569,5.119 2.676,10.341 3.479,15.634 0.122,0.807 0.033,1.431 -0.313,2.168 -1.551,3.308 0.878,7.039 4.64,7.215 0.108,0.005 0.216,0.007 0.325,0.007 0.187,0 0.376,-0.005 0.563,-0.005 -0.582,1.486 -1.135,2.894 -1.684,4.302 -0.041,0.103 -0.076,0.211 -0.091,0.32 -0.179,1.328 -0.563,2.432 -2.105,2.827 -0.501,0.129 -0.963,0.755 -1.256,1.261 -0.318,0.548 -0.714,0.778 -1.292,0.882 -2.313,0.414 -4.62,0.867 -6.936,1.259 -0.101,0.017 -0.204,0.024 -0.31,0.024 -0.33,0 -0.678,-0.075 -0.989,-0.172 -0.522,-0.163 -1.059,-0.239 -1.598,-0.239 -3.212,0 -6.472,2.709 -6.601,5.963 -0.023,0.6 -0.236,0.94 -0.707,1.276 -1.216,0.868 -2.376,1.813 -3.59,2.684 -0.125,0.089 -0.334,0.141 -0.526,0.141 -0.119,0 -0.232,-0.02 -0.313,-0.063 -3.72,-1.958 -7.672,-2.823 -11.773,-2.823 -0.632,0 -1.268,0.02 -1.907,0.061 -5.712,0.36 -10.483,2.933 -14.48,6.867 -6.936,6.825 -10.769,15.175 -11.782,24.851 -0.524,5.006 -0.693,10.015 -0.13,15.014 0.378,3.352 1.017,6.675 1.539,10.011 0.065,0.41 0.089,0.83 0.197,1.229 0.241,0.887 0.078,1.581 -0.949,1.989 1.393,1.266 2.71,2.482 4.049,3.675 5.818,5.189 11.904,10.029 18.612,14.033 3.45,2.059 7.095,3.702 11.164,3.968 0.273,0.018 0.547,0.026 0.822,0.026 1.477,0 2.97,-0.227 4.453,-0.341 0.352,-0.027 0.695,-0.17 1.17,-0.293 0.114,1.056 0.225,2.06 0.33,3.065 0.097,0.936 0.21,1.872 0.272,2.811 0.031,0.48 0.233,0.714 0.68,0.9 5.934,2.471 11.981,4.61 18.18,6.32 5.664,1.562 11.411,2.737 17.241,3.414 4.397,0.511 8.819,0.896 13.24,1.1 1.715,0.079 3.435,0.122 5.155,0.122"
         style="fill:#ffffff;fill-opacity:1;fill-rule:nonzero;stroke:none"
         id="path832" />
    </g>
    <g
       id="g834"
       transform="matrix(2.4103995,0,0,-2.7908203,20.209936,143.4433)">
      <path
         d="M 0,0 C 0.14,-0.401 0.302,-0.797 0.418,-1.205 1.639,-5.499 3,-9.736 5.34,-13.585 c 0.115,-0.189 0.196,-0.428 0.362,-0.55 0.251,-0.184 0.565,-0.387 0.847,-0.38 0.145,0.004 0.362,0.431 0.404,0.689 0.138,0.864 0.211,1.737 0.433,2.62 0.359,-1.066 0.675,-2.148 1.087,-3.193 0.405,-1.028 0.867,-2.039 1.379,-3.018 0.516,-0.986 1.017,-2.014 2.199,-2.679 0.411,2.405 0.801,4.686 1.191,6.968 0.078,-0.004 0.156,-0.008 0.234,-0.013 0.37,-1.107 0.709,-2.226 1.118,-3.319 1.249,-3.337 3.083,-6.35 5.568,-8.877 1.441,-1.464 3.166,-2.686 4.888,-3.829 2.561,-1.7 4.847,-3.686 6.911,-5.943 1.38,-1.51 2.447,-3.196 2.993,-5.205 0.378,-1.393 0.852,-1.674 2.303,-1.798 0.206,-0.017 0.51,-0.255 0.566,-0.449 0.326,-1.139 0.746,-2.283 0.832,-3.448 0.084,-1.137 -0.687,-2.002 -1.617,-2.631 -2.253,-1.526 -4.726,-2.512 -7.396,-3.052 -9.623,-1.949 -16.947,2.032 -22.853,9.147 -4.174,5.028 -6.726,10.933 -7.754,17.408 -1.23,7.75 -1.116,15.505 0.303,23.231 0.115,0.621 0.272,1.234 0.41,1.851 C -0.168,-0.037 -0.084,-0.018 0,0"
         style="fill:#dd4a10;fill-opacity:1;fill-rule:nonzero;stroke:none"
         id="path836" />
    </g>
    <g
       id="g838"
       transform="matrix(2.4103995,0,0,-2.7908203,239.81491,219.38124)">
      <path
         d="m 0,0 c -1.476,-0.304 -2.886,-0.594 -4.296,-0.884 0.012,-0.127 0.023,-0.254 0.035,-0.382 0.338,0 0.678,-0.027 1.013,0.005 1.845,0.173 3.685,0.472 5.532,0.52 3.518,0.093 6.26,-1.567 8.542,-4.112 0.315,-0.35 0.585,-0.742 0.915,-1.075 0.214,-0.215 0.499,-0.359 0.949,-0.671 0.028,1.337 -0.991,1.837 -1.393,2.677 1.62,-0.077 3.192,-0.07 4.746,-0.242 2.973,-0.329 4.858,0.983 5.96,3.662 0.555,1.348 1.17,2.671 1.948,4.001 0.089,-0.583 0.261,-1.167 0.252,-1.749 -0.036,-2.465 -0.118,-4.929 -0.215,-7.392 -0.007,-0.179 -0.238,-0.376 -0.406,-0.514 -0.119,-0.098 -0.321,-0.087 -0.464,-0.165 -1.901,-1.043 -3.717,-0.439 -5.533,0.264 -0.235,0.091 -0.484,0.146 -0.777,0.113 0.428,-1.049 1.509,-1.107 2.326,-1.533 -0.034,-0.087 -0.039,-0.162 -0.07,-0.174 -3.147,-1.22 -6.285,-2.467 -9.454,-3.628 -0.788,-0.288 -1.677,-0.38 -2.524,-0.407 -1.217,-0.039 -1.594,0.305 -1.981,1.463 -0.031,0.093 -0.1,0.173 -0.151,0.259 -0.082,0.005 -0.163,0.01 -0.244,0.015 -0.038,-0.306 -0.16,-0.631 -0.097,-0.915 0.188,-0.841 0.778,-1.403 1.606,-1.471 0.95,-0.079 1.98,-0.15 2.865,0.127 2.609,0.819 5.156,1.833 7.742,2.73 3.609,1.251 7.233,2.458 10.843,3.703 0.679,0.234 1.331,0.548 1.985,0.848 3.899,1.784 6.152,4.863 7.016,9.005 0.491,2.35 0.931,4.71 1.368,6.935 C 38.384,9.09 38.727,6.986 38.392,4.843 37.688,0.336 35.635,-3.371 31.78,-5.936 30.936,-6.498 29.987,-6.941 29.033,-7.294 22.756,-9.62 16.458,-11.89 10.182,-14.221 9.1,-14.623 8.05,-15.159 7.07,-15.769 6.536,-16.103 6.164,-16.71 5.756,-17.223 c -0.076,-0.095 0.026,-0.331 0.046,-0.502 0.143,0.047 0.34,0.049 0.42,0.147 1.695,2.091 4.269,2.426 6.576,3.286 0.224,0.083 0.519,-0.024 0.781,-0.043 0.043,-0.073 0.087,-0.146 0.13,-0.22 -1.243,-1.244 -2.38,-2.624 -3.75,-3.709 -5.054,-4.004 -10.854,-5.979 -17.276,-5.205 -6.932,0.834 -12.259,4.255 -15.225,10.837 -1.639,3.635 -2.795,7.404 -3.213,11.379 -0.171,1.637 0.024,3.249 0.44,4.89 5.543,-3.533 11.526,-4.898 17.97,-4.291 0.322,0.03 0.63,0.221 1.137,0.408 -1.297,0.948 -2.554,0.105 -3.538,0.406 0.327,1.182 0.635,2.361 0.994,3.524 0.06,0.193 0.322,0.385 0.532,0.459 0.997,0.349 1.309,1.1 1.336,2.071 0.026,0.918 0.071,1.826 0.913,2.47 0.849,0.649 2.737,0.675 3.5,-0.049 0.204,-0.194 0.358,-0.512 0.399,-0.793 0.147,-1.011 0.273,-2.028 0.333,-3.047 0.038,-0.644 0.214,-1.103 0.845,-1.382 0.226,-0.1 0.455,-0.411 0.502,-0.66 C -0.222,1.86 -0.129,0.953 0,0"
         style="fill:#dd4a10;fill-opacity:1;fill-rule:nonzero;stroke:none"
         id="path840" />
    </g>
    <g
       id="g842"
       transform="matrix(2.4103995,0,0,-2.7908203,422.1679,189.28782)">
      <path
         d="m 0,0 c 0.307,-2.371 0.614,-4.742 0.959,-7.409 0.574,0.571 1.023,0.923 1.354,1.364 1.633,2.169 2.712,4.625 3.615,7.166 0.085,0.241 0.177,0.48 0.454,0.691 C 6.413,1.136 6.4,0.454 6.489,-0.215 6.55,-0.675 6.64,-1.401 6.914,-1.51 c 0.659,-0.26 1.023,0.388 1.296,0.894 1.178,2.191 2.363,4.379 3.472,6.604 0.614,1.233 1.082,2.538 1.677,3.956 0.123,-0.306 0.218,-0.484 0.267,-0.675 1.115,-4.378 1.663,-8.824 1.325,-13.337 -0.69,-9.205 -3.823,-17.477 -10.066,-24.337 -4.862,-5.342 -10.998,-8.721 -18.184,-9.71 -4.219,-0.581 -8.411,0.043 -12.142,2.424 -1.65,1.053 -2.057,2.057 -1.614,3.977 0.118,0.51 0.309,1.003 0.463,1.504 0.209,0.684 0.507,1.12 1.386,1.048 0.77,-0.063 1.399,0.462 1.642,1.196 1.755,5.312 5.883,8.536 10.334,11.275 6.235,3.836 10.469,9.105 12.756,16.008 0.076,0.229 0.168,0.453 0.253,0.679 C -0.147,-0.002 -0.074,-0.001 0,0"
         style="fill:#dd4a10;fill-opacity:1;fill-rule:nonzero;stroke:none"
         id="path844" />
    </g>
    <g
       id="g846"
       transform="matrix(2.4103995,0,0,-2.7908203,258.70161,312.33733)">
      <path
         d="m 0,0 c -0.835,0.128 -1.187,-0.477 -1.624,-0.893 -3.187,-3.035 -6.793,-4.84 -11.343,-3.908 -3.008,0.616 -5.936,1.403 -8.108,3.805 -0.064,0.071 -0.177,0.098 -0.288,0.156 -0.025,-1.803 5.866,-4.875 10.582,-5.02 C -6.853,-5.981 -0.374,-2.513 0,0 m 7.383,18.3 c 0.15,-0.262 0.3,-0.523 0.492,-0.858 0.353,0.864 0.198,1.128 -1.152,2.202 1.504,0.54 2.955,1.057 4.403,1.579 1.745,0.63 3.48,1.287 5.238,1.877 0.343,0.115 0.786,0.046 1.153,-0.053 0.639,-0.171 1.258,-0.424 1.881,-0.655 3.088,-1.141 4.401,-4.072 3.036,-7.097 C 21.956,14.237 21.212,13.233 20.383,12.412 18.832,10.876 17.201,9.401 15.477,8.064 11.63,5.081 8.742,1.26 5.958,-2.642 2.919,-6.902 -1.134,-9.76 -5.966,-11.555 c -3.378,-1.256 -6.799,-1.152 -10.14,0.23 -0.785,0.324 -1.617,0.698 -2.221,1.267 -2.296,2.165 -4.978,3.783 -7.56,5.549 -2.968,2.029 -5.261,4.58 -6.627,7.997 -0.592,1.48 -1.685,2.775 -2.636,4.094 -1.454,2.016 -3.05,3.932 -4.444,5.987 -0.573,0.845 -0.841,1.921 -1.132,2.926 -0.281,0.97 -0.017,1.849 0.768,2.558 0.719,0.649 1.375,1.37 2.107,2.003 0.182,0.158 0.621,0.228 0.821,0.119 1.605,-0.874 3.173,-1.814 4.77,-2.702 0.531,-0.295 0.761,-0.697 0.897,-1.284 1.195,-5.162 3.03,-10.067 6.755,-13.961 2.905,-3.037 6.487,-5.096 10.663,-5.908 1.783,-0.347 3.593,-0.101 5.351,0.36 3.11,0.815 5.994,2.121 8.62,3.992 3.927,2.798 6.133,6.61 6.697,11.375 0.173,1.457 0.242,2.925 0.361,4.388 0.021,0.259 0.057,0.517 0.085,0.776 0.072,0.029 0.143,0.059 0.214,0.089"
         style="fill:#dd4a10;fill-opacity:1;fill-rule:nonzero;stroke:none"
         id="path848" />
    </g>
    <g
       id="g850"
       transform="matrix(2.4103995,0,0,-2.7908203,175.24754,296.91106)">
      <path
         d="m 0,0 c 0.429,-0.794 0.959,-1.551 1.27,-2.389 1.336,-3.608 3.8,-6.272 6.912,-8.393 2.608,-1.777 5.172,-3.594 7.641,-5.579 2.897,-2.329 6.458,-2.931 10.082,-2.322 5.906,0.993 10.6,4.141 14.437,8.651 0.245,0.288 0.465,0.597 0.813,1.045 0.531,-1.754 0.951,-3.353 1.507,-4.903 0.38,-1.059 0.435,-2.101 0.274,-3.18 -0.364,-2.453 -1.579,-4.338 -3.752,-5.578 -2.924,-1.668 -6.096,-2.606 -9.383,-3.224 -5.322,-1.001 -10.587,-0.939 -15.739,0.889 -7.239,2.569 -11.954,7.608 -14.271,14.881 -0.987,3.1 -0.73,6.293 -0.294,9.464 0.028,0.202 0.152,0.39 0.231,0.584 z"
         style="fill:#f4764a;fill-opacity:1;fill-rule:nonzero;stroke:none"
         id="path852" />
    </g>
    <g
       id="g854"
       transform="matrix(2.4103995,0,0,-2.7908203,320.27984,127.45497)">
      <path
         d="m 0,0 c -2.497,0.856 -4.948,1.697 -7.514,2.576 2.905,8.612 5.808,17.215 8.756,25.957 3.013,-1.078 5.898,-2.209 8.849,-3.127 1.718,-0.534 2.604,-1.51 3.036,-3.24 1.064,-4.265 2.303,-8.486 3.403,-12.743 0.286,-1.106 0.316,-2.278 0.447,-3.283 1.012,2.087 2.014,4.292 3.139,6.432 1.12,2.128 2.364,4.191 3.642,6.437 2.898,-1.787 5.75,-3.545 8.678,-5.351 C 27.261,6.038 22.182,-1.44 17.089,-8.94 15.481,-7.956 14.015,-6.884 12.402,-6.12 10.732,-5.329 10.12,-4.217 9.82,-2.376 9.028,2.479 7.872,7.274 6.869,12.094 6.633,13.228 6.425,14.368 6.092,15.531 6.033,15.214 6.017,14.882 5.909,14.584 5.136,12.457 4.394,10.317 3.548,8.22 2.524,5.679 1.407,3.176 0.327,0.657 0.232,0.434 0.111,0.222 0,0"
         style="fill:#6affbb;fill-opacity:1;fill-rule:nonzero;stroke:none"
         id="path856" />
    </g>
    <g
       id="g858"
       transform="matrix(2.4103995,0,0,-2.7908203,72.521871,129.53804)">
      <path
         d="M 0,0 C 1.636,1.165 3.238,2.247 4.769,3.423 5.393,3.903 5.947,4.531 6.368,5.196 6.654,5.649 6.812,6.302 6.749,6.833 6.611,8.016 5.584,8.661 4.359,8.389 1.499,7.753 -0.513,5.69 -2.891,4.139 -1.89,2.705 -0.96,1.374 0,0 m -17.043,0.488 c 1.463,1.261 2.863,2.514 4.312,3.706 4.537,3.733 9.185,7.32 14.303,10.238 2.513,1.433 5.148,2.658 8.09,2.803 1.329,0.065 2.748,-0.044 4.002,-0.454 3.563,-1.164 5.113,-4.84 3.733,-8.51 C 16.35,5.487 14.475,3.298 12.146,1.544 9.539,-0.42 6.805,-2.214 4.126,-4.083 3.923,-4.225 3.723,-4.371 3.417,-4.589 5.211,-7.192 6.99,-9.774 8.759,-12.342 5.91,-14.648 3.12,-16.905 0.261,-19.219 -5.476,-12.685 -11.226,-6.137 -17.043,0.488"
         style="fill:#6affbb;fill-opacity:1;fill-rule:nonzero;stroke:none"
         id="path860" />
    </g>
    <g
       id="g862"
       transform="matrix(2.4103995,0,0,-2.7908203,314.26252,63.617467)">
      <path
         d="m 0,0 c -5.669,1.549 -11.269,2.708 -17.062,3.393 -0.217,-1.268 -0.424,-2.482 -0.628,-3.677 4.483,-0.838 8.895,-1.662 13.404,-2.504 -0.619,-2.133 -1.171,-4.032 -1.701,-5.858 -4.275,0.778 -8.452,1.539 -12.696,2.311 -0.267,-1.553 -0.501,-2.91 -0.759,-4.403 5.063,-0.667 10.047,-1.578 15.023,-3.023 -0.664,-2.079 -1.308,-4.095 -1.981,-6.199 -7.788,2.148 -15.675,3.281 -23.82,3.43 0.612,9.067 1.216,18.031 1.83,27.121 C -18.094,10.38 -8.044,8.894 1.949,6.091 1.289,4.029 0.654,2.044 0,0"
         style="fill:#6affbb;fill-opacity:1;fill-rule:nonzero;stroke:none"
         id="path864" />
    </g>
    <g
       id="g866"
       transform="matrix(2.4103995,0,0,-2.7908203,142.10336,99.04051)">
      <path
         d="M 0,0 C 1.955,0.692 3.724,1.319 5.608,1.986 3.92,4.106 2.318,6.12 0.716,8.133 L 0.501,8.04 C 0.337,5.406 0.173,2.773 0,0 m -7.62,-14.904 c -0.105,1.707 -0.233,3.33 -0.3,4.955 -0.271,6.485 -0.129,12.963 0.341,19.435 0.094,1.299 0.195,2.598 0.362,3.888 0.036,0.28 0.321,0.666 0.579,0.758 3.99,1.412 7.991,2.793 12.003,4.141 0.245,0.082 0.719,-0.079 0.894,-0.288 5.929,-7.098 11.153,-14.683 15.621,-22.784 0.075,-0.136 0.117,-0.29 0.211,-0.53 -2.004,-0.337 -3.938,-0.627 -5.856,-0.998 -1.192,-0.231 -2.375,-0.538 -3.533,-0.903 -0.594,-0.187 -0.887,-0.063 -1.207,0.447 -0.662,1.054 -1.417,2.05 -2.093,3.097 C 9.13,-3.266 8.857,-3.147 8.381,-3.318 5.805,-4.244 3.216,-5.135 0.651,-6.089 0.413,-6.177 0.179,-6.612 0.163,-6.899 0.092,-8.143 0.122,-9.392 0.07,-10.637 c -0.011,-0.256 -0.147,-0.64 -0.338,-0.734 -2.401,-1.184 -4.822,-2.326 -7.352,-3.533"
         style="fill:#6affbb;fill-opacity:1;fill-rule:nonzero;stroke:none"
         id="path868" />
    </g>
    <g
       id="g870"
       transform="matrix(2.4103995,0,0,-2.7908203,224.37919,109.86414)">
      <path
         d="m 0,0 c -3.154,-0.325 -6.254,-0.644 -9.439,-0.973 -0.687,6.729 -1.371,13.439 -2.07,20.283 -2.711,-0.495 -5.339,-0.975 -8.064,-1.473 -0.363,2.114 -0.721,4.202 -1.096,6.388 9.62,2.136 19.271,3.097 29.131,2.958 C 8.323,24.946 8.191,22.825 8.049,20.546 H 0 Z"
         style="fill:#6affbb;fill-opacity:1;fill-rule:nonzero;stroke:none"
         id="path872" />
    </g>
    <g
       id="g874"
       transform="matrix(2.4103995,0,0,-2.7908203,392.19362,181.28347)">
      <path
         d="m 0,0 c -2.37,2.093 -4.691,4.142 -7.093,6.263 4.198,5.335 8.419,10.699 12.722,16.166 -2.135,1.593 -4.236,3.161 -6.417,4.789 1.21,1.772 2.42,3.545 3.694,5.412 8.058,-5.521 15.175,-11.985 21.562,-19.42 -1.609,-1.472 -3.173,-2.903 -4.781,-4.373 -1.855,2.001 -3.673,3.961 -5.559,5.996 C 9.377,9.845 4.687,4.921 0,0"
         style="fill:#6affbb;fill-opacity:1;fill-rule:nonzero;stroke:none"
         id="path876" />
    </g>
    <g
       id="g878"
       transform="matrix(2.4103995,0,0,-2.7908203,190.36267,357.47716)">
      <path
         d="m 0,0 c 0.203,-0.119 0.353,-0.181 0.471,-0.281 3.741,-3.205 8.234,-4.679 12.989,-5.222 6.688,-0.765 13.122,0.399 19.212,3.333 2.469,1.19 4.091,3.063 4.787,5.725 0.053,0.202 0.126,0.399 0.24,0.755 0.566,-1.011 1.04,-1.906 1.561,-2.773 0.713,-1.185 1.444,-2.36 2.199,-3.519 0.541,-0.832 0.278,-1.667 0.028,-2.471 -0.453,-1.453 -1.387,-2.589 -2.631,-3.434 -6.374,-4.327 -13.381,-6.704 -21.124,-6.669 -2.805,0.012 -5.606,0.331 -8.235,1.359 -1.291,0.505 -2.603,1.189 -3.625,2.105 C 2.732,-8.278 0.737,-4.754 0.003,-0.564 -0.024,-0.409 0,-0.244 0,0"
         style="fill:#f4764a;fill-opacity:1;fill-rule:nonzero;stroke:none"
         id="path880" />
    </g>
    <g
       id="g882"
       transform="matrix(2.4103995,0,0,-2.7908203,385.65204,194.92947)">
      <path
         d="M 0,0 C 0.711,-0.855 1.434,-1.725 2.182,-2.624 7.584,2.717 12.272,8.4 17.503,13.323 18.585,12.151 19.57,11.094 20.544,10.027 21.048,9.475 21.563,8.928 22.009,8.332 22.161,8.129 22.118,7.781 22.165,7.5 21.854,7.487 21.469,7.35 21.247,7.483 20.491,7.939 19.773,8.465 19.077,9.01 18.273,9.64 17.508,10.319 16.629,11.057 13.956,7.855 11.302,4.678 8.543,1.373 h 2.133 C 10.193,0.659 9.765,0.007 9.318,-0.633 8.809,-1.358 8.278,-2.068 7.767,-2.792 7.191,-3.608 7.227,-3.71 8.15,-4.035 7.375,-5.397 6.586,-6.753 5.832,-8.127 5.54,-8.659 5.199,-9.211 5.098,-9.792 c -0.297,-1.717 -1.547,-2.273 -2.976,-2.769 -4.299,-1.491 -8.017,-3.901 -10.966,-7.381 -1.139,-1.344 -2.067,-2.87 -3.056,-4.337 -0.463,-0.687 -0.585,-1.414 -0.027,-2.163 0.123,-0.165 0.084,-0.51 0.02,-0.744 -0.29,-1.064 -0.594,-2.125 -0.945,-3.169 -0.091,-0.27 -0.391,-0.685 -0.561,-0.669 -0.396,0.036 -0.823,0.233 -1.135,0.489 -0.155,0.127 -0.213,0.613 -0.096,0.792 0.796,1.218 0.687,2.458 0.42,3.822 -0.744,3.798 -0.202,7.492 1.229,11.068 1.557,3.89 4.005,7.114 7.21,9.799 C -3.898,-3.473 -2.074,-1.816 0,0"
         style="fill:#dd4a10;fill-opacity:1;fill-rule:nonzero;stroke:none"
         id="path884" />
    </g>
    <g
       id="g886"
       transform="matrix(2.4103995,0,0,-2.7908203,71.334023,204.16764)">
      <path
         d="m 0,0 c 2.539,2.249 5.041,4.465 7.574,6.709 3.179,-3.306 6.272,-6.542 8.588,-10.433 1.667,-2.801 3.161,-5.657 3.568,-8.954 0.315,-2.545 0.286,-5.072 -0.183,-7.607 -0.134,-0.722 0.082,-1.513 0.162,-2.27 0.06,-0.572 0.46,-1.181 -0.236,-1.643 -0.565,-0.375 -1.074,-0.18 -1.246,0.469 -0.311,1.173 -0.64,2.341 -0.935,3.518 -0.047,0.184 -0.024,0.456 0.084,0.597 0.613,0.794 0.388,1.547 -0.023,2.326 -2.754,5.222 -6.832,8.998 -12.286,11.274 -0.996,0.415 -2.22,0.583 -2.938,1.279 C 1.445,-4.072 1.297,-2.863 0.89,-1.904 0.631,-1.293 0.33,-0.701 0,0"
         style="fill:#dd4a10;fill-opacity:1;fill-rule:nonzero;stroke:none"
         id="path888" />
    </g>
    <g
       id="g890"
       transform="matrix(2.4103995,0,0,-2.7908203,215.15724,398.17485)">
      <path
         d="m 0,0 c 1.94,-0.269 3.873,-0.602 5.82,-0.793 4.459,-0.438 8.766,0.37 13.02,1.654 3.589,1.085 6.882,2.755 9.992,4.816 1.849,1.226 3.104,2.892 3.63,5.264 C 33.483,9.759 34.679,8.814 35.251,7.579 35.759,6.482 35.295,5.1 34.522,4.056 33.966,3.306 33.336,2.571 32.607,1.997 27.35,-2.139 21.583,-5.226 14.878,-6.232 10.601,-6.873 6.49,-6.54 3.054,-3.532 1.882,-2.507 0.88,-1.286 -0.199,-0.155 -0.133,-0.103 -0.066,-0.052 0,0"
         style="fill:#f4764a;fill-opacity:1;fill-rule:nonzero;stroke:none"
         id="path892" />
    </g>
    <g
       id="g894"
       transform="matrix(2.4103995,0,0,-2.7908203,244.55594,419.1808)">
      <path
         d="m 0,0 c 1.849,0.287 3.533,0.448 5.169,0.823 4.839,1.107 9.214,3.272 13.298,6.055 0.504,0.343 1.007,0.687 1.497,1.048 2.312,1.708 2.749,2.249 4.212,5.22 C 25.182,10.634 26.873,9.007 29.698,8.65 29.522,8.318 29.399,8.053 29.249,7.805 25.943,2.366 20.964,-0.843 15.056,-2.785 11.643,-3.907 8.162,-4.315 4.701,-3.108 3.396,-2.653 2.213,-1.828 1.015,-1.106 0.637,-0.878 0.389,-0.436 0,0"
         style="fill:#f4764a;fill-opacity:1;fill-rule:nonzero;stroke:none"
         id="path896" />
    </g>
    <g
       id="g898"
       transform="matrix(2.4103995,0,0,-2.7908203,473.69189,308.86276)">
      <path
         d="m 0,0 c -3.833,-0.843 -7.172,-2.747 -10.418,-4.831 -3.627,-2.328 -6.424,-5.416 -8.245,-9.34 -0.268,-0.577 -0.58,-0.73 -1.19,-0.722 -0.907,0.011 -1.815,-0.126 -2.903,-0.214 -0.146,0.822 -0.364,1.696 -0.448,2.582 -0.405,4.278 0.225,8.333 2.619,12.015 0.703,1.081 1.533,1.73 2.893,1.926 3.791,0.547 7.575,0.32 11.362,0.119 C -4.895,1.459 -3.457,1.309 -2.04,1.072 -1.314,0.951 -0.632,0.563 0.07,0.295 0.047,0.197 0.023,0.098 0,0"
         style="fill:#bc2a0d;fill-opacity:1;fill-rule:nonzero;stroke:none"
         id="path900" />
    </g>
    <g
       id="g902"
       transform="matrix(2.4103995,0,0,-2.7908203,496.60369,322.22184)">
      <path
         d="m 0,0 c -1.367,-0.196 -2.524,-0.268 -3.634,-0.537 -5.14,-1.245 -9.677,-3.727 -13.917,-6.835 -2.231,-1.635 -4.555,-3.142 -6.843,-4.699 -0.247,-0.168 -0.53,-0.284 -0.707,-0.377 -0.849,0.79 -1.642,1.526 -2.556,2.376 0.257,0.486 0.58,1.149 0.951,1.785 2.387,4.078 6.011,6.745 9.999,9.124 2.984,1.78 6.086,1.951 9.348,1.68 C -5.366,2.352 -3.38,2.14 -1.606,1.096 -1.1,0.798 -0.632,0.434 0,0"
         style="fill:#bc2a0d;fill-opacity:1;fill-rule:nonzero;stroke:none"
         id="path904" />
    </g>
    <g
       id="g906"
       transform="matrix(2.4103995,0,0,-2.7908203,201.72338,292.61265)">
      <path
         d="M 0,0 C -2.992,1.349 -5.613,2.917 -5.937,6.569 -5.871,6.547 -5.766,6.536 -5.688,6.484 -2.611,4.399 0.837,3.288 4.429,2.471 7.035,1.877 9.633,1.375 12.312,1.608 c 3.049,0.265 6.009,0.904 8.824,2.172 1.839,0.828 3.728,1.543 5.588,2.325 0.736,0.309 1.454,0.661 2.191,0.998 -0.293,-2.56 -5.97,-7.814 -9.156,-8.436 -0.173,0.498 -0.302,1.031 -0.546,1.506 -0.13,0.254 -0.441,0.526 -0.7,0.561 C 18.349,0.755 18.055,0.385 17.948,0.135 17.655,-0.551 17.377,-1.252 17.197,-1.974 17.066,-2.499 16.77,-2.626 16.301,-2.754 13.472,-3.529 10.636,-3.221 7.81,-2.815 6.338,-2.604 4.874,-2.278 3.443,-1.873 2.988,-1.745 2.592,-1.24 2.279,-0.825 1.917,-0.344 1.695,0.24 1.373,0.755 1.238,0.971 1.001,1.123 0.811,1.304 0.619,1.094 0.4,0.902 0.244,0.667 0.128,0.492 0.092,0.263 0,0"
         style="fill:#ffffff;fill-opacity:1;fill-rule:nonzero;stroke:none"
         id="path908" />
    </g>
    <g
       id="g910"
       transform="matrix(2.4103995,0,0,-2.7908203,262.88605,221.0387)">
      <path
         d="m 0,0 c 1.483,3.04 1.603,5.903 0.175,8.748 -1.406,2.804 -3.594,4.566 -6.91,4.815 2.199,1.619 4.293,2.45 6.857,0.955 C 3.706,12.428 6.042,9.517 6.871,5.429 6.99,4.844 7.163,4.27 7.435,3.697 8.081,4.528 7.873,5.433 7.662,6.311 7.445,7.213 7.151,8.096 6.842,9.154 8.359,8.629 9.75,8.147 11.239,7.632 10.38,5.245 9.927,2.84 8.597,0.752 7.988,-0.203 7.139,-0.701 6.025,-0.609 4.072,-0.447 2.125,-0.219 0,0"
         style="fill:#dd4a10;fill-opacity:1;fill-rule:nonzero;stroke:none"
         id="path912" />
    </g>
    <g
       id="g914"
       transform="matrix(2.4103995,0,0,-2.7908203,389.53182,308.53818)">
      <path
         d="m 0,0 c 3.701,-3.095 8.008,-2.6 12.431,-2.006 -2.019,-4.432 -2.14,-8.939 -1.026,-13.537 -0.632,-0.437 -1.198,-0.615 -1.73,0.114 -0.125,0.17 -0.335,0.296 -0.531,0.392 -4.704,2.303 -7.16,6.362 -8.636,11.15 C 0.124,-2.642 -0.04,-1.331 -0.305,-0.05 -0.203,-0.033 -0.102,-0.017 0,0"
         style="fill:#bc2a0d;fill-opacity:1;fill-rule:nonzero;stroke:none"
         id="path916" />
    </g>
    <g
       id="g918"
       transform="matrix(2.4103995,0,0,-2.7908203,132.33979,479.79854)">
      <path
         d="m 0,0 c 0.998,1.522 1.978,3.057 2.998,4.565 3.576,5.284 5.88,11.124 7.751,17.19 1.848,5.993 3.046,12.124 4.337,18.242 0.059,0.277 0.453,0.607 0.751,0.687 1.167,0.311 3.107,-0.696 3.53,-1.818 C 19.445,38.66 19.273,38.33 19.156,38.087 18.932,37.625 18.565,37.212 18.431,36.731 15.955,27.828 12.987,19.111 8.444,11.02 6.942,8.346 5.248,5.769 3.488,3.255 2.585,1.966 1.341,0.915 0.251,-0.244 0.167,-0.162 0.084,-0.081 0,0"
         style="fill:#8c3c20;fill-opacity:1;fill-rule:nonzero;stroke:none"
         id="path920" />
    </g>
    <g
       id="g922"
       transform="matrix(2.4103995,0,0,-2.7908203,319.10501,395.14178)">
      <path
         d="M 0,0 C 1.155,-0.752 2.344,-1.487 3.475,-2.302 3.659,-2.434 3.74,-3.009 3.611,-3.226 2.937,-4.363 2.332,-5.599 1.426,-6.531 c -4.604,-4.73 -10.162,-7.696 -16.744,-8.596 -1.755,-0.24 -3.498,-0.163 -5.002,0.986 -0.23,0.176 -0.443,0.374 -0.736,0.624 C -12.028,-12.157 -4.716,-8.358 0,0"
         style="fill:#f4764a;fill-opacity:1;fill-rule:nonzero;stroke:none"
         id="path924" />
    </g>
    <g
       id="g926"
       transform="matrix(2.4103995,0,0,-2.7908203,377.17757,471.93094)">
      <path
         d="m 0,0 c -1.584,2.329 -3.28,4.59 -4.731,6.999 -4.028,6.685 -7.456,13.65 -9.374,21.272 -0.513,2.039 -1.039,4.074 -1.53,6.118 -0.064,0.265 -0.06,0.667 0.096,0.844 0.725,0.819 1.678,1.38 2.76,1.281 0.415,-0.037 1.066,-0.735 1.105,-1.178 0.654,-7.34 2.896,-14.263 5.629,-21.024 C -4.18,9.698 -1.969,5.224 0.087,0.687 0.163,0.52 0.236,0.353 0.311,0.185 0.207,0.124 0.104,0.062 0,0"
         style="fill:#8c3c20;fill-opacity:1;fill-rule:nonzero;stroke:none"
         id="path928" />
    </g>
    <g
       id="g930"
       transform="matrix(2.4103995,0,0,-2.7908203,301.60985,374.56898)">
      <path
         d="m 0,0 c -4.67,4.831 -8.07,10.247 -9.767,16.723 1.471,-0.14 2.914,-0.28 4.358,-0.414 0.606,-0.056 1.213,-0.111 1.821,-0.147 0.874,-0.051 1.067,-0.256 0.95,-1.13 -0.104,-0.777 -0.245,-1.549 -0.371,-2.323 0.105,-0.033 0.209,-0.065 0.313,-0.097 0.22,0.547 0.439,1.093 0.678,1.69 1.145,-1.069 1.607,-2.402 1.728,-3.82 C -0.176,9.138 -0.266,7.777 -0.266,6.424 -0.174,6.407 -0.081,6.391 0.011,6.374 0.221,7.005 0.43,7.636 0.672,8.361 2.096,7.138 2.896,5.565 3.63,3.814 1.774,3.201 0.499,2.046 0,0"
         style="fill:#dd4a10;fill-opacity:1;fill-rule:nonzero;stroke:none"
         id="path932" />
    </g>
    <g
       id="g934"
       transform="matrix(2.4103995,0,0,-2.7908203,291.06218,438.52704)">
      <path
         d="m 0,0 c 1.625,0.648 3.184,1.203 4.687,1.884 3.49,1.58 6.688,3.624 9.233,6.519 0.893,1.015 1.525,2.279 2.171,3.485 0.368,0.689 0.886,0.766 1.446,0.553 1.277,-0.484 2.225,-1.382 2.612,-2.708 C 20.268,9.324 20.161,8.712 19.92,8.354 16.718,3.61 12.35,0.312 7.037,-1.712 4.402,-2.716 2.107,-1.8 0,0"
         style="fill:#f4764a;fill-opacity:1;fill-rule:nonzero;stroke:none"
         id="path936" />
    </g>
    <g
       id="g938"
       transform="matrix(2.4103995,0,0,-2.7908203,192.12203,288.78477)">
      <path
         d="m 0,0 c 1.275,-0.749 2.348,-1.416 3.455,-2.02 1.054,-0.575 1.095,-0.536 1.501,0.718 0.287,-0.529 0.47,-1.02 0.783,-1.405 0.385,-0.474 0.805,-1.065 1.335,-1.251 4.252,-1.494 8.593,-2.254 13.119,-1.429 1.13,0.206 1.511,0.967 1.893,1.828 0.165,0.372 0.305,0.755 0.45,1.119 0.324,-0.446 0.556,-1.102 0.922,-1.188 0.566,-0.132 1.266,0.015 1.836,0.233 2.807,1.077 4.889,3.082 6.707,5.402 0.222,0.283 0.441,0.568 0.668,0.847 0.029,0.035 0.097,0.036 0.337,0.118 C 32.691,2.013 32.509,1.118 32.112,0.331 31.504,-0.874 30.758,-2.011 30.044,-3.161 29.905,-3.386 29.675,-3.587 29.441,-3.715 25.812,-5.703 22.128,-7.579 17.93,-8.014 13.599,-8.463 9.35,-8.225 5.394,-6.123 5.126,-5.981 4.84,-5.851 4.611,-5.659 2.766,-4.112 1.336,-2.226 0,0"
         style="fill:#ffffff;fill-opacity:1;fill-rule:nonzero;stroke:none"
         id="path940" />
    </g>
    <g
       id="g942"
       transform="matrix(2.4103995,0,0,-2.7908203,307.84507,305.28827)">
      <path
         d="m 0,0 c -0.665,-2.429 -1.275,-4.635 -2.786,-6.438 -0.683,-0.816 -1.639,-1.276 -2.705,-1.249 -2.237,0.056 -4.472,0.189 -6.706,0.331 -0.229,0.014 -0.509,0.259 -0.648,0.473 -0.628,0.967 -0.524,1.788 0.291,2.709 1.427,1.611 2.693,3.364 4.029,5.055 0.402,0.51 0.7,0.634 1.19,-0.022 C -6.982,0.386 -6.357,0.044 -5.784,-0.18 -3.936,-0.902 -2.063,-0.89 0,0"
         style="fill:#dd4a10;fill-opacity:1;fill-rule:nonzero;stroke:none"
         id="path944" />
    </g>
    <g
       id="g946"
       transform="matrix(2.4103995,0,0,-2.7908203,351.42172,356.62401)">
      <path
         d="m 0,0 c -0.029,-1.288 -0.436,-2.454 -1.194,-3.482 -0.144,-0.195 -0.485,-0.337 -0.739,-0.344 -1.454,-0.039 -2.581,-0.682 -3.562,-1.713 -0.206,-0.216 -0.678,-0.356 -0.967,-0.285 -1.386,0.339 -2.414,2.188 -2.13,3.706 0.422,2.262 2.929,4.722 5.19,5.091 C -1.31,3.316 0.065,2.115 0,0"
         style="fill:#dd4a10;fill-opacity:1;fill-rule:nonzero;stroke:none"
         id="path948" />
    </g>
    <g
       id="g950"
       transform="matrix(2.4103995,0,0,-2.7908203,397.07781,414.17072)">
      <path
         d="m 0,0 c -0.512,1.848 -1.02,3.59 -1.472,5.346 -0.248,0.962 -0.509,1.942 -0.56,2.925 -0.034,0.647 0.271,1.32 0.485,1.961 0.035,0.105 0.396,0.18 0.581,0.144 C 0.386,10.108 1.764,9.908 3.071,9.489 4.406,9.06 5.295,8.068 5.595,6.65 5.639,6.44 5.604,6.128 5.474,5.98 3.83,4.113 2.163,2.267 0.499,0.42 0.393,0.302 0.255,0.212 0,0"
         style="fill:#f4764a;fill-opacity:1;fill-rule:nonzero;stroke:none"
         id="path952" />
    </g>
    <g
       id="g954"
       transform="matrix(2.4103995,0,0,-2.7908203,389.68801,456.58059)">
      <path
         d="m 0,0 c -0.904,1.702 -1.864,3.377 -2.7,5.112 -2.974,6.162 -5.496,12.507 -7.617,19.012 -0.188,0.578 -0.36,1.161 -0.517,1.748 -0.349,1.306 0.882,2.902 2.231,2.911 0.717,0.005 0.73,-0.511 0.794,-1.022 0.287,-2.303 0.521,-4.616 0.897,-6.905 C -6.1,15.916 -4.413,11.225 -2.625,6.577 -1.785,4.392 -0.748,2.282 0.2,0.138 0.133,0.092 0.067,0.046 0,0"
         style="fill:#8c3c20;fill-opacity:1;fill-rule:nonzero;stroke:none"
         id="path956" />
    </g>
    <g
       id="g958"
       transform="matrix(2.4103995,0,0,-2.7908203,146.00025,293.28356)">
      <path
         d="m 0,0 c -2.153,-1.14 -3.2,-2.864 -3.283,-5.394 -0.677,0.138 -1.427,0.11 -1.959,0.438 -0.947,0.582 -1.845,1.301 -2.605,2.112 -0.519,0.554 -0.511,1.377 -0.184,2.124 0.766,1.752 2.152,2.776 3.931,3.312 1.954,0.589 1.981,0.568 3.155,-1.14 C -0.621,0.981 -0.32,0.494 0,0"
         style="fill:#dd4a10;fill-opacity:1;fill-rule:nonzero;stroke:none"
         id="path960" />
    </g>
    <g
       id="g962"
       transform="matrix(2.4103995,0,0,-2.7908203,402.91605,442.33122)">
      <path
         d="m 0,0 c -1.649,1.822 -3.112,3.732 -4.22,5.91 -1.718,3.376 -2.717,7.004 -3.842,10.589 -0.327,1.042 1.054,2.718 2.16,2.614 0.214,-0.02 0.515,-0.439 0.561,-0.71 0.95,-5.58 2.589,-10.97 4.472,-16.292 C -0.615,1.395 -0.291,0.703 0,0"
         style="fill:#8c3c20;fill-opacity:1;fill-rule:nonzero;stroke:none"
         id="path964" />
    </g>
    <g
       id="g966"
       transform="matrix(2.4103995,0,0,-2.7908203,331.05916,316.19674)">
      <path
         d="m 0,0 c -0.1,2.395 -1.169,4.083 -3.354,5.066 0.357,1.096 1.052,1.888 1.98,2.478 0.244,0.155 0.586,0.274 0.861,0.239 C 1.655,7.507 3.562,6.757 4.668,4.693 5.184,3.731 5.102,2.923 4.389,2.089 3.257,0.762 1.844,-0.001 0,0"
         style="fill:#dd4a10;fill-opacity:1;fill-rule:nonzero;stroke:none"
         id="path968" />
    </g>
    <g
       id="g970"
       transform="matrix(2.4103995,0,0,-2.7908203,181.72501,371.61798)">
      <path
         d="M 0,0 C -1.845,2.66 -3.547,3.321 -5.753,2.266 -7.42,4.112 -6.629,6.744 -4.239,7.299 -0.901,8.074 2.296,5.183 1.645,1.993 1.451,1.043 0.906,0.415 0,0"
         style="fill:#dd4a10;fill-opacity:1;fill-rule:nonzero;stroke:none"
         id="path972" />
    </g>
    <g
       id="g974"
       transform="matrix(2.4103995,0,0,-2.7908203,209.68661,395.85988)">
      <path
         d="m 0,0 c 0.99,-0.163 2.043,-1.449 1.883,-2.322 -0.948,-5.182 -2.335,-10.248 -4.225,-15.162 -1.335,-3.469 -3.531,-6.443 -5.728,-9.401 -0.043,-0.058 -0.125,-0.086 -0.268,-0.097 C -3.965,-18.474 -0.289,-9.755 0,0"
         style="fill:#8c3c20;fill-opacity:1;fill-rule:nonzero;stroke:none"
         id="path976" />
    </g>
    <g
       id="g978"
       transform="matrix(2.4103995,0,0,-2.7908203,195.63517,215.74927)">
      <path
         d="M 0,0 C -1.169,0.447 -2.116,0.795 -3.049,1.179 -3.191,1.238 -3.328,1.45 -3.36,1.612 -3.969,4.723 -2.061,9.68 0.203,11.05 2.205,12.261 4.307,12.799 6.623,12.358 6.875,12.31 7.107,12.154 7.349,11.931 4.427,11.685 2.336,10.185 0.853,7.83 -0.621,5.491 -1.04,2.96 0,0"
         style="fill:#dd4a10;fill-opacity:1;fill-rule:nonzero;stroke:none"
         id="path980" />
    </g>
    <g
       id="g982"
       transform="matrix(2.4103995,0,0,-2.7908203,412.9662,395.44349)">
      <path
         d="m 0,0 c -1.473,3.922 -4.622,4.391 -8.067,4.428 -0.049,0.26 -0.089,0.529 -0.153,0.792 -0.059,0.239 -0.143,0.473 -0.252,0.826 0.437,0.195 0.863,0.438 1.32,0.582 1.658,0.52 3.353,0.747 5.078,0.415 C -0.658,6.771 0.547,6.114 1.256,4.802 1.824,3.752 2.231,2.687 1.157,1.636 0.734,1.222 0.457,0.659 0,0"
         style="fill:#f4764a;fill-opacity:1;fill-rule:nonzero;stroke:none"
         id="path984" />
    </g>
    <g
       id="g986"
       transform="matrix(2.4103995,0,0,-2.7908203,314.81691,443.65657)">
      <path
         d="m 0,0 c 1.872,1.272 3.674,2.399 5.366,3.672 2.334,1.755 4.399,3.79 5.828,6.387 0.04,0.072 0.094,0.137 0.142,0.204 0.389,0.539 0.747,1.17 1.563,0.969 0.418,-0.103 0.902,-1.644 0.618,-2.15 C 12.888,7.962 12.33,6.737 11.456,5.832 8.548,2.825 5.097,0.713 0.869,0.09 0.605,0.051 0.339,0.034 0,0"
         style="fill:#f4764a;fill-opacity:1;fill-rule:nonzero;stroke:none"
         id="path988" />
    </g>
    <g
       id="g990"
       transform="matrix(2.4103995,0,0,-2.7908203,328.81627,367.02455)">
      <path
         d="m 0,0 c 0.449,-0.773 0.835,-1.438 1.15,-1.982 -1.306,-0.834 -2.658,-1.619 -3.917,-2.533 -0.609,-0.443 -1.022,-1.148 -1.566,-1.691 -0.223,-0.222 -0.555,-0.456 -0.845,-0.467 -1.164,-0.044 -2.175,0.944 -2.51,2.357 -0.296,1.243 0.238,2.752 1.151,3.223 0.14,0.072 0.316,0.119 0.471,0.111 C -3.971,-1.087 -1.946,-0.754 0,0"
         style="fill:#8c3c20;fill-opacity:1;fill-rule:nonzero;stroke:none"
         id="path992" />
    </g>
    <g
       id="g994"
       transform="matrix(2.4103995,0,0,-2.7908203,186.27222,262.23456)">
      <path
         d="m 0,0 c -2.586,1.597 -5.094,3.161 -7.62,4.696 -1.038,0.632 -2.112,1.204 -3.172,1.8 -3.497,1.966 -6.135,4.663 -7.023,8.696 -0.442,2.005 -0.283,4.027 0.735,5.89 0.187,0.342 0.454,0.64 0.833,0.871 -0.218,-0.79 -0.496,-1.569 -0.644,-2.372 -0.709,-3.834 0.612,-7.018 3.418,-9.545 2.874,-2.589 6.187,-4.554 9.733,-6.11 C -3.639,3.881 -3.535,3.843 -3.434,3.798 -1.154,2.803 -0.909,2.534 0,0"
         style="fill:#dd4a10;fill-opacity:1;fill-rule:nonzero;stroke:none"
         id="path996" />
    </g>
    <g
       id="g998"
       transform="matrix(2.4103995,0,0,-2.7908203,175.23912,221.9114)">
      <path
         d="m 0,0 c -0.251,0.361 -0.601,0.69 -0.735,1.09 -0.492,1.464 -0.935,2.946 -1.336,4.437 -0.07,0.26 0.083,0.647 0.251,0.894 1.303,1.913 3.301,2.58 5.446,2.954 C 4.08,9.454 4.544,9.477 4.862,9.511 4.641,7.637 4.424,5.797 4.202,3.909 3.66,4.214 2.971,4.557 2.331,4.975 1.565,5.475 1.036,5.375 0.821,4.449 0.554,3.301 0.461,2.112 0.309,0.939 0.275,0.675 0.304,0.403 0.304,0.135 0.203,0.09 0.101,0.045 0,0"
         style="fill:#dd4a10;fill-opacity:1;fill-rule:nonzero;stroke:none"
         id="path1000" />
    </g>
    <g
       id="g1002"
       transform="matrix(2.4103995,0,0,-2.7908203,140.16202,306.69958)">
      <path
         d="M 0,0 C 0.185,1.449 0.875,2.653 2.145,3.487 2.347,3.62 2.734,3.592 2.988,3.503 4.577,2.947 6.157,2.363 7.728,1.758 7.98,1.661 8.279,1.449 8.374,1.217 8.766,0.247 9.088,-0.751 9.425,-1.707 6.328,-1.146 3.23,-0.585 0,0"
         style="fill:#8c3c20;fill-opacity:1;fill-rule:nonzero;stroke:none"
         id="path1004" />
    </g>
    <g
       id="g1006"
       transform="matrix(2.4103995,0,0,-2.7908203,229.1243,462.79267)">
      <path
         d="M 0,0 C 2.291,5.121 3.355,10.356 3.244,15.926 3.94,15.87 4.64,15.945 5.225,15.72 5.574,15.586 6.002,14.948 5.955,14.595 5.252,9.295 3.888,4.236 0.267,0.074 0.252,0.056 0.215,0.058 0,0"
         style="fill:#8c3c20;fill-opacity:1;fill-rule:nonzero;stroke:none"
         id="path1008" />
    </g>
    <g
       id="g1010"
       transform="matrix(2.4103995,0,0,-2.7908203,379.77332,393.68749)">
      <path
         d="M 0,0 C 0.353,-0.53 0.746,-0.918 0.898,-1.384 1.703,-3.85 2.46,-6.333 3.194,-8.822 3.266,-9.066 3.129,-9.43 2.977,-9.666 2.838,-9.881 2.558,-10.019 2.319,-10.156 0.993,-10.919 0.514,-10.765 0.082,-9.34 c -0.592,1.956 -1.11,3.933 -1.692,5.892 -0.223,0.749 -0.186,1.374 0.413,1.952 C -0.805,-1.118 -0.506,-0.643 0,0"
         style="fill:#f4764a;fill-opacity:1;fill-rule:nonzero;stroke:none"
         id="path1012" />
    </g>
    <g
       id="g1014"
       transform="matrix(2.4103995,0,0,-2.7908203,125.07678,292.49572)">
      <path
         d="m 0,0 c -1.796,1.343 -3.661,2.738 -5.489,4.106 0.554,0.853 1.028,1.584 1.491,2.298 0.657,0.096 1.368,0.2 2.081,0.304 C -0.535,5.357 0.938,3.917 2.344,2.543 1.572,1.706 0.793,0.86 0,0"
         style="fill:#8c3c20;fill-opacity:1;fill-rule:nonzero;stroke:none"
         id="path1016" />
    </g>
    <g
       id="g1018"
       transform="matrix(2.4103995,0,0,-2.7908203,358.13854,290.0691)">
      <path
         d="m 0,0 c -1.967,-1.381 -3.886,-2.728 -5.743,-4.032 -0.769,0.811 -1.539,1.622 -2.38,2.507 0.583,0.55 1.237,1.165 1.888,1.784 0.461,0.439 0.916,0.884 1.376,1.323 0.589,0.561 0.989,1.061 2.121,0.759 0.94,-0.252 1.48,-0.488 1.867,-1.33 C -0.696,0.63 -0.308,0.346 0,0"
         style="fill:#8c3c20;fill-opacity:1;fill-rule:nonzero;stroke:none"
         id="path1020" />
    </g>
    <g
       id="g1022"
       transform="matrix(2.4103995,0,0,-2.7908203,328.91679,314.36039)">
      <path
         d="m 0,0 c -3.218,-0.603 -6.295,-1.179 -9.432,-1.767 0.354,0.932 0.713,1.926 1.12,2.899 0.066,0.158 0.338,0.258 0.534,0.328 1.611,0.577 3.221,1.153 4.844,1.695 C -2.679,3.24 -2.3,3.25 -2.087,3.118 -0.868,2.366 -0.213,1.235 0,0"
         style="fill:#8c3c20;fill-opacity:1;fill-rule:nonzero;stroke:none"
         id="path1024" />
    </g>
    <g
       id="g1026"
       transform="matrix(2.4103995,0,0,-2.7908203,331.85722,440.79822)">
      <path
         d="M 0,0 C 2.847,1.87 5.684,3.7 7.146,7.094 7.913,5.505 8.661,3.957 9.455,2.313 6.588,0.286 3.376,-0.131 0,0"
         style="fill:#f4764a;fill-opacity:1;fill-rule:nonzero;stroke:none"
         id="path1028" />
    </g>
    <g
       id="g1030"
       transform="matrix(2.4103995,0,0,-2.7908203,252.25112,197.78532)">
      <path
         d="M 0,0 C 0.022,0.045 0.053,0.146 0.112,0.227 0.977,1.408 0.997,1.58 -0.286,2.283 -1.159,2.76 -2.157,3.006 -3.233,3.406 V 4.441 C 0.23,4.569 3.338,2.08 4.305,-1.466 4.89,-3.607 4.536,-5.624 3.692,-7.609 3.395,-8.309 2.941,-7.864 2.443,-7.842 2.614,-7.362 2.77,-6.957 2.902,-6.545 3.685,-4.085 2.963,-2.024 1.16,-0.3 0.915,-0.066 0.415,-0.099 0,0"
         style="fill:#ffffff;fill-opacity:1;fill-rule:nonzero;stroke:none"
         id="path1032" />
    </g>
    <g
       id="g1034"
       transform="matrix(2.4103995,0,0,-2.7908203,313.17929,367.01004)">
      <path
         d="m 0,0 c -2.114,-1.724 -2.604,-3.557 -1.611,-5.578 0.866,-1.76 2.898,-2.543 4.445,-1.615 0.502,0.301 0.827,0.902 1.22,1.376 0.112,0.134 0.18,0.304 0.292,0.498 0.603,-1.089 0.188,-2.5 -0.913,-3.224 -1.311,-0.861 -2.69,-0.751 -4.044,-0.146 -2.077,0.929 -3.646,3.772 -3.381,6.029 0.16,1.369 1.874,2.869 3.255,2.832 C -0.531,0.167 -0.327,0.079 0,0"
         style="fill:#dd4a10;fill-opacity:1;fill-rule:nonzero;stroke:none"
         id="path1036" />
    </g>
    <g
       id="g1038"
       transform="matrix(2.4103995,0,0,-2.7908203,419.56564,385.94772)">
      <path
         d="m 0,0 c -1.669,4.037 -2.559,4.567 -7.758,4.868 0.307,0.123 0.625,0.226 0.92,0.373 0.603,0.3 1.194,0.623 1.79,0.937 0.073,0.038 0.14,0.089 0.214,0.123 C -2.697,7.283 0.821,5.963 1.726,3.798 1.851,3.501 1.812,3.03 1.659,2.741 1.183,1.846 0.616,1.001 0,0"
         style="fill:#f4764a;fill-opacity:1;fill-rule:nonzero;stroke:none"
         id="path1040" />
    </g>
    <g
       id="g1042"
       transform="matrix(2.4103995,0,0,-2.7908203,360.04203,417.53282)">
      <path
         d="M 0,0 C 1.729,-0.212 3.121,0.045 4.226,1.408 4.824,-0.096 5.389,-1.491 5.922,-2.899 5.97,-3.026 5.854,-3.268 5.743,-3.395 4.951,-4.31 3.923,-4.806 2.749,-5.025 2.214,-5.125 1.895,-4.971 1.694,-4.401 1.193,-2.977 0.614,-1.58 0,0"
         style="fill:#f4764a;fill-opacity:1;fill-rule:nonzero;stroke:none"
         id="path1044" />
    </g>
    <g
       id="g1046"
       transform="matrix(2.4103995,0,0,-2.7908203,361.3181,381.50585)">
      <path
         d="M 0,0 C -1.659,1.024 -2.122,2.874 -1.06,4.326 -0.567,5.001 0.078,5.609 0.767,6.084 1.544,6.619 2.421,6.492 3.16,5.892 3.939,5.26 4.37,4.444 4.145,3.414 4.098,3.201 3.846,2.872 3.683,2.869 1.754,2.833 0.628,1.778 0,0"
         style="fill:#dd4a10;fill-opacity:1;fill-rule:nonzero;stroke:none"
         id="path1048" />
    </g>
    <g
       id="g1050"
       transform="matrix(2.4103995,0,0,-2.7908203,213.47743,185.0268)">
      <path
         d="m 0,0 c -0.034,-0.67 -0.065,-1.265 -0.094,-1.825 -0.865,-0.185 -1.681,-0.305 -2.461,-0.542 -0.8,-0.242 -0.88,-0.576 -0.433,-1.294 0.213,-0.343 0.438,-0.679 0.791,-1.225 -0.734,0.108 -1.239,0.166 -1.737,0.259 -1.1,0.203 -1.612,-0.037 -1.976,-1.1 -0.756,-2.208 -0.68,-4.256 1.361,-5.86 -1.162,-0.111 -1.771,0.417 -2.204,1.428 -1.632,3.81 1.693,9.64 5.818,10.114 C -0.665,-0.014 -0.392,-0.018 0,0"
         style="fill:#ffffff;fill-opacity:1;fill-rule:nonzero;stroke:none"
         id="path1052" />
    </g>
    <g
       id="g1054"
       transform="matrix(2.4103995,0,0,-2.7908203,171.02284,318.15925)">
      <path
         d="M 0,0 C -1.81,0.259 -3.684,5.24 -3.899,7.442 -2.451,7.232 -0.978,7.019 0.439,6.813 0.296,4.594 0.149,2.315 0,0"
         style="fill:#dd4a10;fill-opacity:1;fill-rule:nonzero;stroke:none"
         id="path1056" />
    </g>
    <g
       id="g1058"
       transform="matrix(2.4103995,0,0,-2.7908203,386.78758,234.38692)">
      <path
         d="m 0,0 c -1.494,-1.237 -3.011,-2.396 -4.41,-3.682 -1.156,-1.064 -2.287,-2.195 -3.218,-3.452 -0.776,-1.047 -1.25,-2.317 -1.847,-3.494 -0.174,-0.342 -0.255,-0.747 -0.481,-1.046 -0.403,-0.53 -0.969,-0.496 -1.49,-0.19 -0.51,0.299 -0.488,0.751 -0.214,1.221 2.722,4.666 6.393,8.312 11.355,10.57 C -0.216,-0.032 -0.111,-0.026 0,0"
         style="fill:#8c3c20;fill-opacity:1;fill-rule:nonzero;stroke:none"
         id="path1060" />
    </g>
    <g
       id="g1062"
       transform="matrix(2.4103995,0,0,-2.7908203,84.871313,224.59478)">
      <path
         d="m 0,0 c 2.081,-0.769 3.901,-1.944 5.523,-3.42 2.229,-2.027 4.064,-4.366 5.48,-7.027 0.384,-0.722 0.27,-1.233 -0.291,-1.485 -0.645,-0.289 -1.356,-0.055 -1.534,0.657 C 7.964,-6.422 4.29,-3.527 0.716,-0.548 0.486,-0.355 0.239,-0.182 0,0"
         style="fill:#8c3c20;fill-opacity:1;fill-rule:nonzero;stroke:none"
         id="path1064" />
    </g>
    <g
       id="g1066"
       transform="matrix(2.4103995,0,0,-2.7908203,381.61993,392.66856)">
      <path
         d="m 0,0 c -1.519,0.938 -1.922,2.103 -1.24,3.386 0.851,1.598 2.112,2.085 3.646,1.41 0.227,-0.1 0.453,-0.24 0.691,-0.27 C 3.74,4.443 3.885,4.046 3.88,3.481 3.875,2.757 3.905,2.192 2.819,2.239 1.807,2.282 1.055,1.544 0.473,0.725 0.316,0.505 0.177,0.272 0,0"
         style="fill:#dd4a10;fill-opacity:1;fill-rule:nonzero;stroke:none"
         id="path1068" />
    </g>
    <g
       id="g1070"
       transform="matrix(2.4103995,0,0,-2.7908203,410.43915,364.23625)">
      <path
         d="M 0,0 C 0.462,0.292 0.889,0.728 1.392,0.851 2.98,1.237 4.568,1.105 6.111,0.54 6.163,0.522 6.218,0.509 6.266,0.483 7.463,-0.196 8.421,-1.023 7.372,-2.696 7.129,-3.084 6.86,-3.457 6.496,-3.996 5.236,-1.091 2.945,-0.216 0.121,-0.302 0.081,-0.202 0.04,-0.101 0,0"
         style="fill:#f4764a;fill-opacity:1;fill-rule:nonzero;stroke:none"
         id="path1072" />
    </g>
    <g
       id="g1074"
       transform="matrix(2.4103995,0,0,-2.7908203,363.97485,410.54825)">
      <path
         d="M 0,0 C -0.131,0.034 -0.388,0.058 -0.605,0.165 -1.613,0.661 -1.994,1.559 -2,2.608 -2.007,3.628 -1.65,4.507 -0.655,4.981 0.077,5.329 0.379,5.195 0.634,4.448 0.919,3.615 1.199,2.779 1.492,1.949 1.851,0.931 1.203,0.008 0,0"
         style="fill:#8c3c20;fill-opacity:1;fill-rule:nonzero;stroke:none"
         id="path1076" />
    </g>
    <g
       id="g1078"
       transform="matrix(2.4103995,0,0,-2.7908203,342.75464,399.62554)">
      <path
         d="m 0,0 c 0.097,-0.327 0.182,-0.613 0.272,-0.918 -1.01,-0.724 -1.895,-0.965 -3.102,-0.229 -0.878,0.536 -1.421,1.133 -1.733,2.039 -0.373,1.085 -0.644,2.181 -0.281,3.327 0.324,1.02 1.029,1.571 2.106,1.599 C -3.876,4.301 -4.258,2.71 -3.197,1.045 -2.599,0.108 -1.513,-0.214 0,0"
         style="fill:#dd4a10;fill-opacity:1;fill-rule:nonzero;stroke:none"
         id="path1080" />
    </g>
    <g
       id="g1082"
       transform="matrix(2.4103995,0,0,-2.7908203,174.01318,243.64266)">
      <path
         d="m 0,0 c -0.655,2.296 -1.279,4.481 -1.902,6.666 0.057,0.033 0.115,0.067 0.173,0.1 C -1.519,6.479 -1.296,6.2 -1.1,5.903 -0.667,5.247 -0.146,4.778 0.715,4.804 0.869,4.809 1.123,4.566 1.174,4.391 1.406,3.599 1.607,2.794 1.759,1.983 1.801,1.759 1.714,1.42 1.556,1.268 1.106,0.834 0.588,0.47 0,0"
         style="fill:#dd4a10;fill-opacity:1;fill-rule:nonzero;stroke:none"
         id="path1084" />
    </g>
    <g
       id="g1086"
       transform="matrix(2.4103995,0,0,-2.7908203,364.20961,393.74332)">
      <path
         d="m 0,0 c -2.548,-0.9 -3.481,-2.802 -2.548,-5.047 0.751,-1.804 2.353,-2.181 4.755,-0.999 -0.701,-0.911 -1.398,-1.52 -2.405,-1.677 -1.243,-0.195 -1.863,0.169 -2.216,1.36 -0.543,1.83 -1.025,3.678 -1.578,5.504 -0.163,0.538 0.021,0.764 0.48,0.935 C -2.355,0.507 -1.207,0.63 0,0"
         style="fill:#dd4a10;fill-opacity:1;fill-rule:nonzero;stroke:none"
         id="path1088" />
    </g>
    <g
       id="g1090"
       transform="matrix(2.4103995,0,0,-2.7908203,326.84094,382.95959)">
      <path
         d="m 0,0 c 0.418,-0.255 0.81,-0.493 1.248,-0.76 -0.853,-2.026 -0.29,-3.869 0.759,-5.814 -0.327,0.02 -0.646,-0.044 -0.711,0.056 -0.79,1.225 -2.211,1.533 -3.298,2.319 -0.085,0.062 -0.173,0.119 -0.266,0.183 C -0.45,-2.455 -0.45,-2.455 0,0"
         style="fill:#dd4a10;fill-opacity:1;fill-rule:nonzero;stroke:none"
         id="path1092" />
    </g>
    <g
       id="g1094"
       transform="matrix(2.4103995,0,0,-2.7908203,186.78467,163.03625)">
      <path
         d="M 0,0 C 1.565,0 3.154,0.163 4.687,-0.057 5.701,-0.203 6.636,-0.898 7.563,-1.491 6.095,-1.603 4.591,-1.958 3.171,-1.748 2.037,-1.58 1.006,-0.723 -0.07,-0.172 -0.047,-0.115 -0.023,-0.057 0,0"
         style="fill:#dd4a10;fill-opacity:1;fill-rule:nonzero;stroke:none"
         id="path1096" />
    </g>
    <g
       id="g1098"
       transform="matrix(2.4103995,0,0,-2.7908203,339.35019,384.03768)">
      <path
         d="M 0,0 C 0.355,-1.423 0.714,-2.783 1.011,-4.155 1.046,-4.315 0.768,-4.69 0.591,-4.721 -0.117,-4.848 -0.712,-4.578 -1.13,-3.977 -2.029,-2.683 -1.503,-0.748 0,0"
         style="fill:#8c3c20;fill-opacity:1;fill-rule:nonzero;stroke:none"
         id="path1100" />
    </g>
    <g
       id="g1102"
       transform="matrix(2.4103995,0,0,-2.7908203,229.42995,179.45157)">
      <path
         d="m 0,0 c -0.775,0 -1.553,-0.043 -2.322,0.022 -0.291,0.025 -0.562,0.299 -0.842,0.46 0.245,0.178 0.477,0.484 0.738,0.513 1.754,0.19 3.513,0.339 5.274,0.445 C 3.056,1.452 3.283,1.117 3.502,0.944 3.274,0.686 3.066,0.229 2.816,0.206 1.885,0.117 0.94,0.17 0,0.17 Z"
         style="fill:#dd4a10;fill-opacity:1;fill-rule:nonzero;stroke:none"
         id="path1104" />
    </g>
    <g
       id="g1106"
       transform="matrix(2.4103995,0,0,-2.7908203,355.43214,376.60348)">
      <path
         d="m 0,0 c 0.525,-0.818 0.981,-1.531 1.471,-2.294 -0.764,-0.511 -1.614,-1.08 -2.604,-1.743 -0.177,1.01 -0.342,1.87 -0.467,2.737 -0.022,0.152 0.08,0.397 0.205,0.481 C -0.942,-0.515 -0.455,-0.261 0,0"
         style="fill:#8c3c20;fill-opacity:1;fill-rule:nonzero;stroke:none"
         id="path1108" />
    </g>
    <g
       id="g1110"
       transform="matrix(2.4103995,0,0,-2.7908203,188.74072,364.43384)">
      <path
         d="m 0,0 c 0.191,-0.234 0.437,-0.426 0.537,-0.676 0.529,-1.32 1.021,-2.654 1.551,-4.051 -1.002,0.549 -2.026,1.088 -3.019,1.681 -0.13,0.078 -0.192,0.467 -0.122,0.648 C -0.761,-1.64 -0.405,-0.906 0,0"
         style="fill:#8c3c20;fill-opacity:1;fill-rule:nonzero;stroke:none"
         id="path1112" />
    </g>
    <g
       id="g1114"
       transform="matrix(2.4103995,0,0,-2.7908203,250.49805,219.16132)">
      <path
         d="m 0,0 c -1.175,0 -2.06,0.033 -2.94,-0.012 -0.576,-0.029 -0.636,0.357 -0.698,0.73 -0.127,0.765 -0.162,1.548 -0.335,2.3 -0.085,0.368 -0.323,0.885 -0.613,0.986 -0.705,0.245 -0.72,0.702 -0.726,1.291 -0.007,0.661 -0.072,1.328 -0.179,1.982 -0.349,2.125 -2.106,3.207 -4.203,2.616 -1.348,-0.379 -2.213,-1.396 -2.361,-2.782 -0.041,-0.386 -0.071,-0.773 -0.097,-1.16 -0.037,-0.55 -0.28,-0.95 -0.822,-1.123 -0.73,-0.234 -0.955,-0.76 -1.101,-1.486 -0.165,-0.819 -0.509,-1.623 -0.894,-2.373 -0.389,-0.757 -1.073,-1.068 -1.954,-0.867 -0.393,0.09 -0.804,0.1 -1.378,0.166 2.135,1.272 2.258,3.446 2.818,5.341 0.709,2.394 1.004,4.881 0.872,7.389 -0.097,1.843 -0.84,2.763 -2.64,2.949 -4.439,0.458 -8.851,0.379 -13.099,-1.252 -0.464,-0.178 -0.917,-0.393 -1.356,-0.625 -1.806,-0.956 -2.799,-2.329 -2.78,-4.507 0.032,-3.482 0.566,-6.838 1.968,-10.024 0.233,-0.53 0.856,-0.876 1.239,-1.355 0.27,-0.338 0.437,-0.757 0.741,-1.304 -1.108,0.121 -1.64,0.588 -2.1,1.216 -1.387,1.895 -2.177,4.041 -2.617,6.316 -0.48,2.488 -0.532,4.99 -0.174,7.516 0.233,1.642 1.086,2.675 2.579,3.25 3.278,1.263 6.685,2.03 10.169,2.315 2.249,0.185 4.525,0.078 6.788,0.028 1.256,-0.027 2.096,-0.738 2.575,-1.904 0.273,-0.665 0.598,-1.31 0.935,-1.945 0.173,-0.326 0.39,-0.607 0.852,-0.285 0.197,0.137 0.519,0.115 0.786,0.126 1.604,0.064 3.211,0.083 4.813,0.185 0.979,0.063 1.315,0.433 1.452,1.38 0.067,0.465 0.17,0.944 0.123,1.402 -0.086,0.822 0.328,1.202 1.039,1.319 1.828,0.299 3.653,0.656 5.494,0.821 4.351,0.391 8.704,0.382 12.944,-0.829 1.442,-0.411 2.79,-1.163 4.164,-1.797 0.743,-0.343 0.938,-1.008 0.943,-1.791 0.018,-3.074 -0.606,-6.036 -1.37,-8.996 -0.658,-2.549 -1.67,-4.911 -3.042,-7.147 -0.617,-1.004 -1.491,-1.506 -2.605,-1.495 -2.24,0.02 -4.479,0.12 -6.717,0.212 -0.291,0.012 -0.613,0.115 -0.856,0.274 -1.037,0.679 -2.05,1.396 -3.248,2.22 1.281,-0.219 2.388,-0.432 3.503,-0.594 1.479,-0.215 2.959,-0.501 4.445,-0.558 3.548,-0.136 3.623,0.463 4.833,3.209 1.088,2.467 1.785,5.115 2.551,7.713 0.43,1.461 0.66,2.993 0.247,4.511 -0.122,0.45 -0.391,0.926 -0.731,1.239 -1.365,1.258 -3.053,1.87 -4.843,2.223 -3.626,0.714 -7.232,0.46 -10.792,-0.385 -1.726,-0.41 -3.291,-1.26 -4.171,-2.901 -0.337,-0.627 -0.518,-1.431 -0.487,-2.143 0.114,-2.68 0.305,-5.358 0.549,-8.03 C -2.368,2.023 -1.944,0.587 0,0"
         style="fill:#54341c;fill-opacity:1;fill-rule:nonzero;stroke:none"
         id="path1116" />
    </g>
    <g
       id="g1118"
       transform="matrix(2.4103995,0,0,-2.7908203,280.48126,193.45228)">
      <path
         d="M 0,0 C 1.653,1.369 3.194,2.644 4.754,3.937 5.229,2.79 5.109,2.539 4.191,1.925 3.368,1.374 2.62,0.711 1.827,0.114 1.103,-0.431 1.095,-0.421 0,0"
         style="fill:#54341c;fill-opacity:1;fill-rule:nonzero;stroke:none"
         id="path1120" />
    </g>
    <g
       id="g1122"
       transform="matrix(2.4103995,0,0,-2.7908203,171.04116,185.06699)">
      <path
         d="M 0,0 C 1.528,-0.921 3.01,-1.815 4.639,-2.798 3.802,-3.134 3.158,-3.476 2.389,-2.955 1.66,-2.461 0.885,-2.032 0.136,-1.566 -0.816,-0.974 -0.822,-0.909 0,0"
         style="fill:#54341c;fill-opacity:1;fill-rule:nonzero;stroke:none"
         id="path1124" />
    </g>
    <g
       id="g1126"
       transform="matrix(2.4103995,0,0,-2.7908203,271.62567,161.55711)">
      <path
         d="m 0,0 c -0.806,-0.651 -1.534,-1.067 -2.539,-0.991 -1.259,0.096 -2.53,0.023 -3.825,0.023 0.894,0.504 1.818,1.044 2.766,1.538 0.159,0.082 0.425,-0.032 0.639,-0.068 C -2.011,0.343 -1.063,0.181 0,0"
         style="fill:#dd4a10;fill-opacity:1;fill-rule:nonzero;stroke:none"
         id="path1128" />
    </g>
    <g
       id="g1130"
       transform="matrix(2.4103995,0,0,-2.7908203,432.49743,359.98415)">
      <path
         d="M 0,0 C -2.045,1.527 -3.116,1.851 -6.074,1.87 -4.885,2.726 -1.7,2.736 -0.605,1.841 -0.068,1.402 0.554,0.921 0,0"
         style="fill:#f4764a;fill-opacity:1;fill-rule:nonzero;stroke:none"
         id="path1132" />
    </g>
    <g
       id="g1134"
       transform="matrix(2.4103995,0,0,-2.7908203,414.0234,358.94737)">
      <path
         d="M 0,0 C 0.807,0.596 1.72,0.656 2.651,0.629 4.25,0.584 5.688,0.116 6.864,-1.015 7.181,-1.32 7.437,-1.64 6.934,-2.097 5.151,0.314 2.602,0.217 0,0"
         style="fill:#f4764a;fill-opacity:1;fill-rule:nonzero;stroke:none"
         id="path1136" />
    </g>
    <g
       id="g1138"
       transform="matrix(2.4103995,0,0,-2.7908203,179.00657,241.42175)">
      <path
         d="m 0,0 c 0.354,-1.095 0.663,-2.053 1.039,-3.217 -1.08,0.474 -1.97,0.865 -2.956,1.298 0.66,0.661 1.239,1.24 1.917,1.919"
         style="fill:#dd4a10;fill-opacity:1;fill-rule:nonzero;stroke:none"
         id="path1140" />
    </g>
    <g
       id="g1142"
       transform="matrix(2.4103995,0,0,-2.7908203,344.1522,404.74081)">
      <path
         d="M 0,0 C 0.19,-0.583 0.36,-1.104 0.539,-1.65 0.061,-1.869 -0.38,-2.071 -0.853,-2.288 -1.111,-1.781 -1.369,-1.271 -1.645,-0.727 -1.116,-0.493 -0.602,-0.266 0,0"
         style="fill:#dd4a10;fill-opacity:1;fill-rule:nonzero;stroke:none"
         id="path1144" />
    </g>
    <g
       id="g1146"
       transform="matrix(2.4103995,0,0,-2.7908203,376.59208,390.44818)">
      <path
         d="M 0,0 C 0.212,-0.282 0.392,-0.523 0.609,-0.812 0.22,-1.314 -0.16,-1.805 -0.56,-2.321 -1.191,-0.949 -1.115,-0.622 0,0"
         style="fill:#8c3c20;fill-opacity:1;fill-rule:nonzero;stroke:none"
         id="path1148" />
    </g>
    <g
       id="g1150"
       transform="matrix(2.4103995,0,0,-2.7908203,195.87597,141.45038)">
      <path
         d="M 0,0 C 0.873,0.115 1.702,0.176 2.508,0.343 3.261,0.499 3.704,1.286 3.593,2.07 3.47,2.933 2.855,3.009 2.174,2.957 1.622,2.915 1.062,2.888 0.53,2.757 0.32,2.705 0.044,2.402 0.024,2.192 -0.04,1.51 0,0.819 0,0 m -0.08,-6.428 c 0.933,0.105 1.796,0.142 2.631,0.312 0.814,0.166 1.277,0.973 1.12,1.778 C 3.512,-3.526 2.942,-3.283 2.192,-3.339 1.453,-3.395 0.715,-3.466 -0.08,-3.535 Z M 21.303,4.267 c 0.071,0.799 0.164,1.597 0.206,2.398 0.025,0.476 0.172,0.718 0.695,0.655 3.402,-0.413 6.821,-0.715 10.203,-1.253 2.82,-0.449 5.6,-1.16 8.393,-1.778 0.7,-0.155 1.373,-0.434 2.072,-0.597 0.503,-0.118 0.689,-0.341 0.598,-0.865 -0.142,-0.813 -0.227,-1.636 -0.345,-2.52 -2.16,0.474 -4.251,0.931 -6.423,1.407 -0.094,-0.761 -0.175,-1.408 -0.261,-2.099 1.752,-0.335 3.428,-0.656 5.225,-1 -0.138,-1.058 -0.268,-2.054 -0.41,-3.143 -1.751,0.247 -3.437,0.485 -5.214,0.736 -0.108,-0.793 -0.208,-1.519 -0.322,-2.351 1.421,-0.171 2.786,-0.321 4.146,-0.505 0.754,-0.102 1.78,-0.021 2.165,-0.469 0.342,-0.396 -0.027,-1.41 -0.096,-2.15 -0.025,-0.273 -0.091,-0.543 -0.161,-0.946 -0.443,0.064 -0.894,0.047 -1.28,0.198 -2.551,0.996 -5.195,1.54 -7.923,1.705 -0.22,0.014 -0.438,0.054 -0.656,0.092 -0.044,0.007 -0.08,0.062 -0.179,0.144 0.579,0.383 1.126,0.745 1.699,1.125 -0.291,1.36 -1.461,0.434 -2.205,0.935 0.3,2.739 0.609,5.557 0.915,8.353 -1.085,0.112 -2.113,0.218 -3.21,0.331 -0.201,-1.848 -0.543,-3.606 -0.545,-5.364 -0.002,-2.01 -0.551,-3.478 -2.559,-4.226 -0.791,-0.294 -1.499,-0.808 -2.442,-1.332 0.349,3.877 0.683,7.575 1.015,11.264 -2.426,0.564 -4.702,0.186 -6.949,-0.798 -0.171,0.28 -0.304,0.51 -0.448,0.734 -0.592,0.921 -2.206,1.349 -3.103,0.748 -0.267,-0.179 -0.52,-0.642 -0.482,-0.937 0.038,-0.292 0.404,-0.675 0.706,-0.775 1.128,-0.372 2.279,-0.683 3.437,-0.946 4.399,-0.998 4.398,-5.919 2.28,-8.329 -2.196,-2.498 -6.972,-3.297 -9.78,-1.507 -0.81,0.516 -1.433,1.324 -2.053,1.914 C 7.517,-7.498 6.98,-8.216 6.384,-8.882 6.09,-9.211 5.772,-9.214 5.305,-8.937 4.071,-8.205 2.778,-7.558 1.461,-6.985 1.016,-6.792 0.43,-6.913 -0.092,-6.91 c -1.432,0.006 -2.863,0.002 -4.338,0.002 -0.022,0.344 -0.049,0.557 -0.048,0.771 0.014,3.574 0.049,7.148 0.034,10.721 -0.003,0.684 0.186,0.972 0.89,1.071 2.328,0.33 4.646,0.73 6.968,1.099 C 5.703,7.117 7.258,6.341 7.952,4.496 8.684,2.549 7.923,0.325 6.141,-0.802 6.029,-0.873 5.92,-0.948 5.687,-1.103 c 1.815,-0.463 2.538,-1.696 2.666,-3.432 0.999,0.235 1.912,0.434 2.815,0.669 0.469,0.122 0.718,0.066 0.936,-0.458 0.542,-1.305 2.599,-1.852 3.786,-1.076 0.637,0.417 0.651,1.286 -0.045,1.623 -0.588,0.283 -1.259,0.396 -1.894,0.579 -0.77,0.223 -1.561,0.389 -2.31,0.668 -2.733,1.018 -3.802,3.371 -2.823,6.139 1.111,3.14 4.08,4.375 7.279,4.143 2.368,-0.171 4.154,-1.248 5.206,-3.485"
         style="fill:#f29ee6;fill-opacity:1;fill-rule:nonzero;stroke:none"
         id="path1152" />
    </g>
    <g
       id="g1154"
       transform="matrix(2.4103995,0,0,-2.7908203,171.37017,150.90205)">
      <path
         d="m 0,0 c -0.157,0.899 -0.251,1.894 -0.521,2.839 -0.236,0.827 -0.875,1.07 -1.716,0.849 -0.998,-0.262 -1.499,-1.01 -1.778,-1.917 -0.481,-1.566 -0.51,-3.164 -0.153,-4.759 0.255,-1.137 0.806,-1.673 1.647,-1.684 0.98,-0.013 1.792,0.569 2.039,1.621 C -0.256,-2.089 -0.167,-1.094 0,0 M 5.032,0.918 C 4.909,-1.654 4.233,-3.965 2.415,-5.847 c -1.99,-2.06 -5.484,-2.84 -8.141,-1.766 -2.291,0.926 -3.435,2.68 -3.531,5.139 -0.193,4.991 3.823,9.582 8.632,9.862 C 1.934,7.536 3.838,6.239 4.541,3.766 4.802,2.844 4.874,1.869 5.032,0.918"
         style="fill:#f29ee6;fill-opacity:1;fill-rule:nonzero;stroke:none"
         id="path1156" />
    </g>
    <g
       id="g1158"
       transform="matrix(2.4103995,0,0,-2.7908203,310.95954,150.55235)">
      <path
         d="M 0,0 C 0.787,-0.206 1.447,-0.416 2.122,-0.542 2.626,-0.636 3.235,-0.761 3.463,-0.09 3.67,0.521 3.364,1.041 2.838,1.303 2.039,1.701 1.184,1.988 0.278,2.353 0.174,1.477 0.091,0.772 0,0 M -3.62,6.555 C -2.276,6.072 -1.019,5.674 0.195,5.17 1.673,4.557 3.144,3.911 4.564,3.174 5.765,2.551 6.677,1.569 7.292,0.351 8.217,-1.482 7.601,-2.829 5.64,-3.316 5.51,-3.348 5.386,-3.403 5.212,-3.464 5.442,-4.064 5.654,-4.628 5.873,-5.19 6.083,-5.728 6.3,-6.263 6.454,-6.65 6.181,-7.182 5.968,-7.596 5.683,-8.149 4.807,-8.045 3.772,-7.95 2.749,-7.777 2.558,-7.745 2.349,-7.428 2.27,-7.2 c -0.372,1.07 -0.711,2.153 -1.042,3.237 -0.32,1.049 -0.31,1.052 -1.556,1.21 -0.192,-1.513 -0.385,-3.03 -0.589,-4.641 -1.465,0.124 -2.88,0.244 -4.419,0.375 0.572,4.524 1.135,8.978 1.716,13.574"
         style="fill:#f29ee6;fill-opacity:1;fill-rule:nonzero;stroke:none"
         id="path1160" />
    </g>
    <g
       id="g1162"
       transform="matrix(2.4103995,0,0,-2.7908203,136.54665,144.41896)">
      <path
         d="m 0,0 v -8.8 c 1.873,0.388 3.689,0.763 5.599,1.158 v -3.266 c -3.312,-0.511 -6.633,-1.024 -9.996,-1.543 -0.026,0.229 -0.064,0.388 -0.06,0.547 0.083,3.043 0.154,6.086 0.284,9.127 0.014,0.327 0.3,0.772 0.588,0.936 C -2.468,-1.203 -1.298,-0.656 0,0"
         style="fill:#f29ee6;fill-opacity:1;fill-rule:nonzero;stroke:none"
         id="path1164" />
    </g>
    <g
       id="g1166"
       transform="matrix(2.4103995,0,0,-2.7908203,185.20009,164.99792)">
      <path
         d="M 0,0 C 0.736,-0.438 1.383,-0.822 2.262,-1.345 1.386,-1.515 0.741,-1.64 0,-1.784 Z"
         style="fill:#f29ee6;fill-opacity:1;fill-rule:nonzero;stroke:none"
         id="path1168" />
    </g>
    <g
       id="g1170"
       transform="matrix(2.4103995,0,0,-2.7908203,205.29823,176.03785)">
      <path
         d="M 0,0 2.875,-0.598 C 2.853,-0.702 2.831,-0.805 2.809,-0.909 1.886,-0.548 0.744,-1.184 -0.054,-0.249 Z"
         style="fill:#dd4a10;fill-opacity:1;fill-rule:nonzero;stroke:none"
         id="path1172" />
    </g>
    <g
       id="g1174"
       transform="matrix(2.4103995,0,0,-2.7908203,245.63868,181.6968)">
      <path
         d="M 0,0 C 0.447,1.138 1.395,1.641 2.287,1.326 1.486,0.861 0.743,0.43 0,0"
         style="fill:#dd4a10;fill-opacity:1;fill-rule:nonzero;stroke:none"
         id="path1176" />
    </g>
    <g
       id="g1178"
       transform="matrix(2.4103995,0,0,-2.7908203,258.70161,312.33733)">
      <path
         d="m 0,0 c -0.374,-2.513 -6.853,-5.981 -10.781,-5.86 -4.716,0.145 -10.607,3.217 -10.582,5.02 0.111,-0.058 0.224,-0.085 0.288,-0.156 2.172,-2.402 5.1,-3.189 8.108,-3.805 4.55,-0.932 8.156,0.873 11.343,3.908 C -1.187,-0.477 -0.835,0.128 0,0"
         style="fill:#000000;fill-opacity:1;fill-rule:nonzero;stroke:none"
         id="path1180" />
    </g>
    <g
       id="g1182"
       transform="matrix(2.4103995,0,0,-2.7908203,72.521871,129.53804)">
      <path
         d="m 0,0 c -0.96,1.374 -1.89,2.705 -2.891,4.139 2.378,1.551 4.39,3.614 7.25,4.25 C 5.584,8.661 6.611,8.016 6.749,6.833 6.812,6.302 6.654,5.649 6.368,5.196 5.947,4.531 5.393,3.903 4.769,3.423 3.238,2.247 1.636,1.165 0,0"
         style="fill:#000000;fill-opacity:1;fill-rule:nonzero;stroke:none"
         id="path1184" />
    </g>
    <g
       id="g1186"
       transform="matrix(2.4103995,0,0,-2.7908203,142.10336,99.04051)">
      <path
         d="M 0,0 C 0.173,2.773 0.337,5.406 0.501,8.04 L 0.716,8.133 C 2.318,6.12 3.92,4.106 5.608,1.986 3.724,1.319 1.955,0.692 0,0"
         style="fill:#000000;fill-opacity:1;fill-rule:nonzero;stroke:none"
         id="path1188" />
    </g>
    <g
       id="g1190"
       transform="matrix(2.4103995,0,0,-2.7908203,195.68218,159.38865)">
      <path
         d="M 0,0 V 2.893 C 0.795,2.962 1.533,3.033 2.273,3.088 3.023,3.144 3.592,2.901 3.751,2.09 3.909,1.284 3.445,0.478 2.632,0.312 1.796,0.142 0.934,0.105 0,0"
         style="fill:#000000;fill-opacity:1;fill-rule:nonzero;stroke:none"
         id="path1192" />
    </g>
    <g
       id="g1194"
       transform="matrix(2.4103995,0,0,-2.7908203,195.87597,141.45038)">
      <path
         d="M 0,0 C 0,0.819 -0.04,1.51 0.024,2.192 0.044,2.402 0.32,2.705 0.53,2.757 1.062,2.888 1.622,2.915 2.174,2.957 2.855,3.009 3.47,2.933 3.593,2.07 3.704,1.286 3.261,0.499 2.508,0.343 1.702,0.176 0.873,0.115 0,0"
         style="fill:#000000;fill-opacity:1;fill-rule:nonzero;stroke:none"
         id="path1196" />
    </g>
    <g
       id="g1198"
       transform="matrix(2.4103995,0,0,-2.7908203,171.37017,150.90205)">
      <path
         d="m 0,0 c -0.167,-1.094 -0.256,-2.089 -0.482,-3.051 -0.247,-1.052 -1.059,-1.634 -2.039,-1.621 -0.841,0.011 -1.392,0.547 -1.647,1.684 -0.357,1.595 -0.328,3.193 0.153,4.759 0.279,0.907 0.78,1.655 1.778,1.917 0.841,0.221 1.48,-0.022 1.716,-0.849 C -0.251,1.894 -0.157,0.899 0,0"
         style="fill:#000000;fill-opacity:1;fill-rule:nonzero;stroke:none"
         id="path1200" />
    </g>
    <g
       id="g1202"
       transform="matrix(2.4103995,0,0,-2.7908203,310.95954,150.55235)">
      <path
         d="M 0,0 C 0.091,0.772 0.174,1.477 0.278,2.353 1.184,1.988 2.039,1.701 2.838,1.303 3.364,1.041 3.67,0.521 3.463,-0.09 3.235,-0.761 2.626,-0.636 2.122,-0.542 1.447,-0.416 0.787,-0.206 0,0"
         style="fill:#000000;fill-opacity:1;fill-rule:nonzero;stroke:none"
         id="path1204" />
    </g>
  </g>
</svg>
